<?xml version="1.0" standalone="no"?>
<!DOCTYPE svg PUBLIC "-//W3C//DTD SVG 1.1//EN" "http://www.w3.org/Graphics/SVG/1.1/DTD/svg11.dtd" >
<svg xmlns="http://www.w3.org/2000/svg">
<metadata>
Created by FontForge 20120731 at Wed Mar 30 18:04:50 2016
 By Ads
</metadata>
<defs>
<font id="iconfont" horiz-adv-x="1024" >
  <font-face 
    font-family="iconfont"
    font-weight="500"
    font-stretch="normal"
    units-per-em="1024"
    panose-1="2 0 6 3 0 0 0 0 0 0"
    ascent="896"
    descent="-128"
    x-height="792"
    bbox="-123 -128.393 1922 896.69"
    underline-thickness="50"
    underline-position="-100"
    unicode-range="U+0078-E725"
  />
<missing-glyph horiz-adv-x="374" 
d="M34 0v682h272v-682h-272zM68 34h204v614h-204v-614z" />
    <glyph glyph-name=".notdef" horiz-adv-x="374" 
d="M34 0v682h272v-682h-272zM68 34h204v614h-204v-614z" />
    <glyph glyph-name=".null" horiz-adv-x="0" 
 />
    <glyph glyph-name="nonmarkingreturn" horiz-adv-x="341" 
 />
    <glyph glyph-name="x" unicode="x" horiz-adv-x="1001" 
d="M281 543q-27 -1 -53 -1h-83q-18 0 -36.5 -6t-32.5 -18.5t-23 -32t-9 -45.5v-76h912v41q0 16 -0.5 30t-0.5 18q0 13 -5 29t-17 29.5t-31.5 22.5t-49.5 9h-133v-97h-438v97zM955 310v-52q0 -23 0.5 -52t0.5 -58t-10.5 -47.5t-26 -30t-33 -16t-31.5 -4.5q-14 -1 -29.5 -0.5
t-29.5 0.5h-32l-45 128h-439l-44 -128h-29h-34q-20 0 -45 1q-25 0 -41 9.5t-25.5 23t-13.5 29.5t-4 30v167h911zM163 247q-12 0 -21 -8.5t-9 -21.5t9 -21.5t21 -8.5q13 0 22 8.5t9 21.5t-9 21.5t-22 8.5zM316 123q-8 -26 -14 -48q-5 -19 -10.5 -37t-7.5 -25t-3 -15t1 -14.5
t9.5 -10.5t21.5 -4h37h67h81h80h64h36q23 0 34 12t2 38q-5 13 -9.5 30.5t-9.5 34.5q-5 19 -11 39h-368zM336 498v228q0 11 2.5 23t10 21.5t20.5 15.5t34 6h188q31 0 51.5 -14.5t20.5 -52.5v-227h-327z" />
    <glyph glyph-name="uniE600" unicode="&#xe600;" 
d="M512 -45q-69 0 -131 20t-115 56l-1 1q-5 3 -9.5 6.5t-9.5 7.5q-13 9 -24 19.5t-22 21.5l-15 14q-17 22 -32 42l-1 1q-1 2 -2.5 3t-2.5 4q-5 7 -8.5 13t-7.5 14q-30 53 -44 108.5t-14 111.5q0 38 5.5 74t16.5 69q0 1 1 1q4 11 9 22t9 23q39 83 106.5 144t154.5 89
q21 7 43 13q11 2 23 4t23 3q24 3 48 3q33 0 61 -3.5t55 -12.5q5 -2 11 -3.5t11 -3.5q33 -11 63 -26q5 -2 9 -5.5t9 -5.5q14 -8 27 -16.5t26 -18.5q4 -4 8 -7.5t8 -6.5q11 -10 22 -21.5t21 -22.5h1l12 -15q7 -9 14 -18.5t13 -19.5q1 -1 1 -2q1 -1 1 -1.5t1 -1.5
q32 -51 48.5 -110t16.5 -124q0 -92 -34 -172.5t-94 -140.5t-140 -95t-171 -35zM721 31l127 114q23 33 41 69.5t29 76.5l-349 -313q41 7 79 20t73 33zM159 627l171 153q-107 -52 -171 -153zM385 803l-255 -229q-26 -53 -33 -112l403 360q-30 -1 -59 -6t-56 -13zM529 822
l-436 -390q-1 -8 -1 -17v-17q0 -23 3 -48l514 461q-41 10 -80 11zM633 805l-535 -478q3 -18 8 -35t10 -33l581 520q-16 8 -32 14.5t-32 11.5zM716 769l-593 -530q6 -15 13 -29t16 -29l617 552q-13 10 -26 19t-27 17zM784 721l-621 -557q18 -28 38 -49l627 562q-20 23 -44 44
zM841 662l-627 -562q23 -22 47 -41l615 550q-17 30 -35 53zM886 592l-608 -545q14 -9 27.5 -16.5t28.5 -16.5l577 516q-11 35 -25 62zM918 510l-564 -504q31 -13 69 -21l507 453q-3 36 -12 72zM447 -20q17 -3 33 -4.5t32 -1.5q6 0 12 0.5t12 0.5l390 349q6 36 6 74v15z" />
    <glyph glyph-name="uniE601" unicode="&#xe601;" 
d="M860 842q39 0 65.5 -27t26.5 -65v-694q0 -39 -26.5 -65.5t-65.5 -26.5h-693q-39 0 -65.5 26.5t-26.5 65.5v694q0 38 26.5 65t65.5 27h693zM200 746q-34 4 -30 -32q2 -21 5 -45t5.5 -49.5t5.5 -49.5t5 -43q3 -19 12.5 -22t21.5 9q8 8 19.5 19t18.5 18q9 9 19.5 4t23.5 -18
q20 -20 33.5 -32.5t28.5 -27.5q14 -15 24.5 -18.5t26.5 10.5q10 11 14 15l13 14q16 16 11 29.5t-15 22.5q-20 20 -35.5 34t-34.5 34q-10 10 -13 17.5t7 16.5q8 8 18 19.5t18 19.5q13 12 7 22.5t-27 12.5t-45 4.5t-48 5.5t-47.5 5.5t-41.5 4.5zM441 256q16 15 18 27.5
t-14 27.5l-15 15l-13 13q-16 15 -28 8.5t-21 -14.5q-21 -22 -37.5 -38.5t-36.5 -37.5q-9 -9 -15 -10t-15 7q-8 8 -21 20t-20 20q-13 12 -23.5 6.5t-12.5 -27.5q-2 -20 -4.5 -44t-5.5 -48.5t-5.5 -47.5t-3.5 -42q-3 -34 32 -30q20 2 44.5 5.5t49.5 6t49.5 5.5t43.5 5t22 11.5
t-10 22.5q-7 8 -16 17.5t-16 17.5q-10 9 -6.5 17t16.5 21q19 20 34.5 36t29.5 30zM827 56q34 -3 30 33q-2 20 -5 44.5t-5.5 50t-5.5 49.5t-5 42q-2 20 -12 23t-22 -9q-8 -7 -18 -16.5t-17 -16.5q-9 -9 -19.5 -4.5t-23.5 18.5q-19 19 -35 34t-31 30t-27.5 17t-26.5 -13
q-11 -10 -14.5 -14.5t-12.5 -14.5q-17 -15 -10.5 -27.5t16.5 -21.5q20 -20 37 -36.5t37 -37.5q10 -9 13 -16.5t-5.5 -16t-20 -21t-19.5 -20.5q-14 -13 -7.5 -23t27.5 -12t45 -4.5t48 -6t47.5 -6t41.5 -4.5zM858 717q2 18 -6 25.5t-27 5.5q-20 -3 -44 -6t-49.5 -5.5t-50 -5.5
t-42.5 -5q-19 -2 -22.5 -12.5t9.5 -22.5q8 -7 18 -18t18 -18q9 -9 3.5 -19t-18.5 -25q-19 -18 -33.5 -33t-28.5 -29q-15 -15 -18 -26.5t12 -25.5q10 -12 14.5 -15.5t13.5 -12.5q17 -16 30 -10.5t22 13.5q21 22 36 37.5t35 36.5q9 9 17 11.5t17 -5.5q8 -8 19.5 -18.5
t19.5 -18.5q12 -13 22.5 -7.5t12.5 28.5q2 20 4.5 44t5.5 48t6 47z" />
    <glyph glyph-name="uniE602" unicode="&#xe602;" 
d="M77 372v170l279 184l70 -134l175 137l72 -135l176 132l95 -141l-3 -223l-134 155l-184 -134l-69 137l-184 -129l-78 132zM77 -11v169l279 184l70 -134l175 137l72 -135l176 132l95 -140l-3 -224l-134 156l-184 -135l-69 137l-184 -129l-78 133z" />
    <glyph glyph-name="uniE603" unicode="&#xe603;" 
d="M564 423q10 115 54.5 209t112.5 158h168q-69 -64 -107.5 -158t-47.5 -209h135v-152h-131q11 -105 50.5 -191.5t103.5 -145.5h-167q-64 59 -108.5 145.5t-59.5 191.5h-109q-15 -105 -59 -191.5t-109 -145.5h-167q64 59 103.5 145.5t51.5 191.5h-143v152h147
q-9 115 -47.5 209t-107.5 158h167q68 -64 113 -158t54 -209h103z" />
    <glyph glyph-name="uniE604" unicode="&#xe604;" 
d="M723 393q24 0 49 -11.5t45 -34t32.5 -54.5t12.5 -73q0 -43 -22.5 -79t-57.5 -58.5t-78 -27.5t-86 14q-18 -39 -39 -76.5t-50 -66t-65.5 -44t-85.5 -8.5q-8 1 -15 2.5t-11 3.5q-6 2 -10 4l16 138q17 -2 35 3t34 12.5t27.5 17t14.5 18.5q7 21 16.5 50.5t21.5 61.5
q-13 26 -23 58t-18 71q-4 20 -6.5 47.5t-4 55.5t-3 54.5t-3.5 48t-6 33.5t-10 10q-11 2 -19.5 -22t-14 -60t-9 -75.5t-4.5 -67.5h-129q-1 74 -3.5 117.5t-6.5 70.5t-10 44t-18 37q-5 9 -14 14.5t-18 8.5q-10 4 -22 5v129q27 0 49.5 -8.5t41.5 -23.5t34 -34.5t26 -40.5l5 10
q6 12 15.5 28.5t24.5 31t35 25t47 10.5q35 0 59 -19t40 -51t25.5 -74.5t16 -88.5t11 -93t11.5 -89q24 21 53 33.5t64 12.5zM719 199q5 1 10 8t6.5 14.5t-3.5 14.5t-20 7q-11 -2 -20 -13t-19 -29q20 -9 46 -2z" />
    <glyph glyph-name="uniE605" unicode="&#xe605;" 
d="M399 635q0 12 -2 23t-7 22q-5 7 -9.5 7.5t-8.5 -1.5q-6 -3 -11 -13t-5 -27q1 -123 -1 -249t-4 -247h-159v485q0 33 -15.5 57t-57.5 24h-18q27 30 55.5 44t71.5 14q29 0 53.5 -10.5t41.5 -28.5l4 3l5 3q25 20 52.5 26.5t50.5 6.5q27 0 51.5 -10.5t43.5 -28.5l3 3l4 3
q26 20 53.5 26.5t49.5 6.5q26 0 49 -9t40 -24.5t27.5 -37t10.5 -48.5q2 -60 0 -147q6 16 15 34t21 32.5t27.5 23.5t36.5 9q17 0 40 -4t44 -30t35.5 -82t14.5 -157q0 -75 -17 -133.5t-43 -103t-56.5 -76.5t-56.5 -52q7 -3 13.5 -4t14.5 -1q19 0 34.5 6t28.5 13q14 9 26 21
v-56q-6 -15 -23 -27q-15 -11 -42.5 -19t-74.5 -8q-51 0 -90 16q-28 -10 -57.5 -16.5t-53.5 -11.5q-28 -6 -56 -10v61q14 0 31 4q13 2 32 7t42 15q-14 19 -22.5 42t-14 47t-8.5 50t-4 52v16v469q0 12 -2 23t-7 22q-4 7 -8.5 8t-7.5 -1q-5 -3 -10.5 -11.5t-6.5 -24.5
q1 -55 0.5 -120t-1.5 -131.5t-2.5 -131t-2.5 -118.5h-157v485zM765 353v-4v-16q-1 -55 -2 -102t-1 -81q0 -33 2.5 -58.5t7.5 -45.5q37 42 61.5 107t24.5 160q0 90 -6.5 134t-16.5 56t-22 -2t-22.5 -39.5t-17.5 -56t-8 -52.5z" />
    <glyph glyph-name="uniE606" unicode="&#xe606;" 
d="M353 214q18 0 30 13t12 30t-12 29.5t-30 12.5q-17 0 -29 -12.5t-12 -29.5t12 -30t29 -13zM151 257q0 41 15.5 77t43 64t63.5 44t77 16q-3 24 -3 51q2 65 26.5 111.5t63 74t86 38t95.5 4.5t91 -28t73 -58t41.5 -86.5t-3.5 -113.5q-24 -95 -60 -182.5t-73 -168.5
q-17 -38 -15.5 -57t11.5 -24t21.5 1t14.5 19l155 -3q-1 -49 -21.5 -83t-53 -53.5t-72 -25t-77 3t-69.5 30.5t-49.5 58t-16 86t29.5 112q38 83 69 162.5t55 160.5q9 30 -5 53.5t-38.5 34.5t-52.5 8.5t-46.5 -22.5t-22 -60.5t21.5 -106.5q11 -28 19 -60.5t8 -66.5v-10
q0 -43 -16 -79.5t-43 -63.5t-64 -42.5t-78 -15.5t-77.5 15.5t-64 42.5t-43.5 63.5t-16 79.5z" />
    <glyph glyph-name="uniE607" unicode="&#xe607;" 
d="M114 542q27 46 73.5 84.5t106.5 66t130 43t145 15.5q101 0 190 -25.5t171 -84.5l1 -176q-55 42 -116.5 72t-126 44.5t-132 11t-132.5 -29.5q23 -26 37.5 -60.5t14.5 -73.5q0 -41 -16 -77.5t-42.5 -63t-63 -42.5t-77 -16t-77 16t-63 42.5t-42.5 63t-16 77.5q0 64 35 113z
M276.5 390q17.5 0 29 12t11.5 29.5t-11.5 29t-29 11.5t-29 -11.5t-11.5 -29t11.5 -29.5t29 -12zM751.5 303q-17.5 0 -29 -11.5t-11.5 -29t11.5 -29.5t29 -12t29.5 12t12 29.5t-12 29t-29.5 11.5zM914 152q-27 -47 -73.5 -85t-106.5 -66t-130 -43t-145 -15q-101 0 -190 25
t-171 84l-1 176q56 -42 117 -72t125.5 -44.5t131.5 -11t133 29.5q-23 27 -37.5 61t-14.5 73q0 41 16 77.5t42.5 63t63 42.5t77.5 16t77 -16t63 -42.5t42.5 -63t15.5 -77.5q0 -32 -9 -60.5t-26 -51.5z" />
    <glyph glyph-name="uniE608" unicode="&#xe608;" horiz-adv-x="1031" 
d="M791 -126q-42 0 -72 9q-23 7 -43.5 19.5t-42.5 45.5q-2 3 -4.5 6t-4.5 7l-2 3q-22 37 -29.5 83.5t-9.5 93.5l-1 17v474q0 11 -1.5 23t-6.5 23q-8 10 -18 5q-4 -1 -9 -9.5t-7 -24.5q1 -56 0.5 -122.5t-1.5 -133.5t-2 -132.5t-2 -119.5h-160v491q0 11 -2 23t-7 23
q-7 11 -18 5q-5 -2 -10.5 -12t-5.5 -28q1 -124 -1.5 -251.5t-4.5 -250.5h-160v491q0 33 -16 57.5t-58 24.5h-18q27 31 56 44.5t74 13.5q27 0 52 -10t43 -29l3 3l5 4q26 20 53.5 26t50.5 6q29 0 53.5 -10t42.5 -29l4 3l4 4q26 20 54 26t51 6q24 0 47.5 -8.5t41 -24.5
t28.5 -38t11 -49v-61q0 -33 -0.5 -82t-1 -104t-0.5 -111t-0.5 -102t0 -78t1.5 -38l2 -12l3 -15q8 -29 17.5 -47.5t22 -29t28 -14t35.5 -3.5q17 2 32.5 7.5t27.5 12.5l-33 61l149 -5l-59 -159q0 1 -8.5 16t-19.5 36q-6 -7 -16.5 -15.5t-28 -16t-44.5 -13t-64 -5.5z" />
    <glyph glyph-name="uniE609" unicode="&#xe609;" 
d="M539 -52l-147 145l-182 -182l-106 104l184 184q-42 41 -69 68l-44 43l-23 25q-9 7 -10 9l105 105l145 -146l234 234q-63 15 -102 24.5t-61 15.5t-30 8l-10 2q-2 1 -1 1l36 143l371 -92l92 -371l-145 -36l-49 196l-229 -229l145 -147z" />
    <glyph glyph-name="uniE60A" unicode="&#xe60a;" 
d="M114 153h796v-149h-796v149zM579 273v92q32 18 52 50t20 71q0 29 -10.5 54t-29.5 43.5t-44.5 29.5t-54.5 11q-30 0 -55 -11t-44.5 -29.5t-30 -43.5t-10.5 -54q0 -39 19.5 -70.5t50.5 -48.5v-94v-57h-328v150h118q-13 27 -20 57.5t-7 62.5q0 60 24 113t65.5 92t98 62
t119.5 23t119.5 -23t98 -62t65.5 -92t24 -113q0 -32 -7 -62.5t-20 -57.5h118v-150h-331v57z" />
    <glyph glyph-name="uniE60B" unicode="&#xe60b;" 
d="M143 79q64 19 127 30v425q-63 10 -127 29v160q94 -28 181.5 -40t185.5 -12q104 0 197 13.5t192 45.5v-160q-35 -11 -69 -19.5t-70 -15.5v-427q36 -8 70 -16.5t69 -19.5v-160q-99 32 -192 45.5t-197 13.5q-98 0 -185.5 -12t-181.5 -40v160zM510 129q13 0 34.5 -0.5
t34.5 -0.5v386h-69h-59v-386q11 0 30 0.5t29 0.5z" />
    <glyph glyph-name="uniE60C" unicode="&#xe60c;" 
d="M92 750q20 5 46 3q23 -2 54.5 -10.5t74.5 -29.5q29 -16 53 -38t44.5 -47t39 -49.5t37 -44.5t37.5 -33t41.5 -13t42 13t37.5 33t36.5 44.5t39 49.5t44.5 47t53 38q42 21 74.5 29.5t54.5 10.5q27 2 46 -3v-162q-21 1 -41 -2q-17 -2 -36.5 -7.5t-33.5 -16.5q-12 -8 -27 -26
t-33 -40t-38 -45t-39 -41q56 -40 89 -100.5t33 -131.5q0 -60 -24 -113t-65.5 -92t-97.5 -62t-119.5 -23t-120 23t-98 62t-65.5 92t-24 113q0 74 34.5 135.5t93.5 100.5q-19 18 -37 40.5t-36 44t-33 38.5t-25 25q-16 11 -34.5 16.5t-36.5 7.5q-19 3 -41 2v162zM375 179.5
q0 -28.5 10.5 -54t29.5 -44.5t44.5 -29.5t54.5 -10.5t54.5 10.5t45 29.5t30 44.5t10.5 54t-10.5 53.5t-30 43.5t-45 29t-54.5 10.5t-54.5 -10.5t-44.5 -29t-29.5 -43.5t-10.5 -53.5z" />
    <glyph glyph-name="uniE60D" unicode="&#xe60d;" 
d="M332 388h-160q-48 38 -72.5 90.5t-27.5 106t13.5 102t51.5 79t86 36t116 -25.5q61 -30 102.5 -90t69.5 -138q27 78 68.5 138t102.5 90q66 31 117 25.5t86 -36t51.5 -79t13.5 -102t-27.5 -106t-72.5 -90.5h-161q13 24 25 43q9 18 17.5 32.5t10.5 19.5q3 7 11.5 30.5
t12 45.5t-2.5 33t-33 -6q-36 -24 -59 -72.5t-37 -105t-21 -111t-11 -91.5t-7 -77.5t-5 -73.5q-3 -40 -4 -77h-9h-132h-9q-1 37 -4 77q-2 33 -5.5 73.5t-7.5 77.5t-11 91.5t-21 111t-37 105t-59 72.5q-27 17 -33 6t-2.5 -33t11.5 -45.5t12 -30.5q2 -5 10.5 -19.5t17.5 -32.5
q11 -19 25 -43z" />
    <glyph glyph-name="uniE60E" unicode="&#xe60e;" 
d="M1024 203q0 -26 -8.5 -48.5t-24.5 -40.5t-37 -30t-46 -16l1 -1h-17h-4h-4h-676q-5 -1 -17 -1q-39 0 -74 15t-61 41t-41 61t-15 75t15 75t41 61t61 41.5t74 15.5h2q-2 8 -2 15v16q0 73 28 137.5t76 112t112 75.5t136.5 28t137 -28t113 -75.5t76 -112t27.5 -137.5
q0 -38 -8 -74t-23 -69q5 1 11 1.5t11 0.5q27 0 52.5 -11t43.5 -29.5t29 -44t11 -53.5zM666 325q20 0 26 4.5t-8 21.5q-14 19 -31.5 48.5t-36.5 60t-38.5 57.5t-37.5 39q-19 13 -27.5 14t-25.5 -12q-18 -15 -35.5 -38.5t-35.5 -50.5t-36 -52.5t-36 -44.5t-13 -33t25 -14h17
q9 0 19.5 -0.5t21.5 -0.5h17q14 -1 18.5 -10t4.5 -24q0 -18 -0.5 -31t-0.5 -25.5t-0.5 -25.5t-0.5 -31q0 -7 1.5 -15t5.5 -15.5t12 -12t22 -4.5h23q9 0 28 -1q24 0 27.5 12.5t3.5 38.5q0 24 1 43t1 51q0 24 4.5 37t19.5 13q11 0 32 0.5t33 0.5z" />
    <glyph glyph-name="uniE60F" unicode="&#xe60f;" 
d="M891 833q29 0 53 -11t42 -29.5t28 -43.5t10 -54v-620q0 -29 -10 -54t-28 -43.5t-42 -29t-53 -10.5h-689q-29 0 -54 10.5t-43.5 29t-29 43.5t-10.5 54v620q0 29 10.5 54t29 43.5t43.5 29.5t54 11h689zM256 641q9 0 27.5 -0.5t43.5 -0.5h52h55q65 0 141 1v64h-126v64h-65
v-64h-128v-64zM378 536q-8 15 -16 29q-6 13 -12 25.5t-9 20.5l-58 -21l32 -77zM255 139l101 144l-66 26l-99 -145zM449 322h126v62h-45h-81v65q23 0 45.5 -1t41.5 -1h41v64h-67q-20 0 -41 1l69 66l-69 32l-20 -98h-258v-63h36h47h54h56v-65h-128v-62h41q18 0 40.5 -0.5
t46.5 0.5v-129q0 -17 -2 -27.5t-10 -15.5t-25 -5t-48 6q26 -32 28 -72q13 2 34 1t40.5 1.5t33.5 12.5t14 35v193zM568 211q-16 19 -29 38l-24 30q-12 15 -18 23l-46 -31l64 -98zM896 516q-20 1 -53 0.5t-64 -1.5q-37 -1 -76 -3v129q50 0 86 4.5t60 9.5q28 7 46 15
q-18 27 -30 46q-5 8 -9.5 15t-7.5 11t-3.5 5t1.5 -5q-22 -16 -57.5 -23.5t-69.5 -10.5t-57.5 -3t-21.5 0q1 -17 1.5 -44.5t0 -78t-1 -129t-0.5 -196.5q0 -13 -3 -33t-10 -40t-20 -35.5t-32 -19.5q13 -3 22 -11.5t17 -18.5t14 -19.5t12 -14.5q12 18 23.5 42t20.5 50t14 52.5
t5 47.5v41v43v47v61h65v-384h63v384q24 -2 36 -1t29 -4v72z" />
    <glyph glyph-name="uniE610" unicode="&#xe610;" 
d="M1024 595l-602 -602l-301 301l602 602zM0 173l301 -301h-301v301z" />
    <glyph glyph-name="uniE611" unicode="&#xe611;" 
d="M512 597l423 -424h-181v-301h-484l-1 301h-178zM995 896v-121h-966v121h966z" />
    <glyph glyph-name="uniE612" unicode="&#xe612;" 
d="M274 518q-27 0 -35 15t11 38q19 25 45 60t53.5 72t53.5 72.5t47 61.5q18 23 35 24t36 -21q20 -24 45 -57t51.5 -69.5t52.5 -71.5t47 -60q22 -28 17 -46.5t-34 -17.5q-17 0 -44.5 -1t-46.5 -1q-20 -1 -24.5 -12.5t-4.5 -32.5v-50q0 -28 0.5 -56.5t0.5 -56.5v-51
q0 -10 -1.5 -21.5t-7.5 -20.5t-16.5 -15t-29.5 -6q-21 0 -39 -0.5t-43 -0.5q-33 0 -45 15.5t-12 50.5v40q0 24 -0.5 50.5t-0.5 52.5v49q0 30 -6 48t-28 17q-15 0 -37 1t-40 1zM962 -5q6 -25 -3 -47.5t-27.5 -39.5t-45 -26.5t-57.5 -9.5h-694q-37 0 -65 13.5t-45 33
t-22.5 42.5t1.5 41q6 14 12 30q6 13 13 30t15 34l39 94h117l-44 -129h659l-44 129h112q21 -52 39 -94q7 -18 14 -35.5t12.5 -31.5t9.5 -23.5t4 -10.5z" />
    <glyph glyph-name="uniE613" unicode="&#xe613;" 
d="M893 768q29 0 49 -20t20 -49v-52q0 -29 -20 -48.5t-49 -19.5h-760q-29 0 -48.5 19.5t-19.5 48.5v52q0 29 19.5 49t48.5 20h760zM893 447q29 0 49 -19.5t20 -48.5v-52q0 -29 -20 -49t-49 -20h-760q-29 0 -48.5 20t-19.5 49v52q0 29 19.5 48.5t48.5 19.5h760zM893 127
q29 0 49 -20t20 -49v-52q0 -29 -20 -48.5t-49 -19.5h-760q-29 0 -48.5 19.5t-19.5 48.5v52q0 29 19.5 49t48.5 20h760z" />
    <glyph glyph-name="uniE614" unicode="&#xe614;" 
d="M0 -128l106 474l589 37l-589 40l-106 473l1024 -512z" />
    <glyph glyph-name="uniE615" unicode="&#xe615;" 
d="M512 809q88 0 165.5 -33.5t134.5 -91t90.5 -135t33.5 -165.5t-33.5 -165t-90.5 -134.5t-134.5 -91t-165.5 -33.5t-165 33.5t-134.5 91t-91 134.5t-33.5 165t33.5 165.5t91 135t134.5 91t165 33.5zM761 191q5 15 8 33t5 38q-14 5 -28 11l-28 12q-1 -13 -3 -28t-5 -35
q-5 -31 -45 -31h-31q-41 -3 -38 35v139l78 2l36 -36l46 41q-40 36 -79.5 70.5t-78.5 67.5l-40 -31q5 -5 13 -11.5t18 -16.5q22 -20 32 -32l-242 -6q55 46 131 122h257v56h-216q-1 3 -2 9l-4 14q-5 17 -9 27t-5 16l-67 -7q2 -5 5 -15t8 -25t6 -19h-237v-56h184
q-48 -54 -98 -94q-23 -22 -53 -35l29 -57q8 2 24 4t43 4h24q0 -76 -33 -110q-30 -36 -127 -67q2 -4 5 -8.5t8 -11.5q8 -12 13.5 -20t8.5 -14q199 61 187 236l75 3v-156q-2 -72 73 -69h67q73 -3 85 51z" />
    <glyph glyph-name="uniE616" unicode="&#xe616;" 
d="M981 810v-522q0 -47 -23.5 -93.5t-61.5 -90t-86.5 -82.5t-99 -69.5t-98 -51t-82.5 -27.5l-11 -2l-11 2q-36 7 -84.5 27.5t-100.5 51t-102.5 69.5t-89.5 82.5t-63.5 90t-24.5 93.5v522l38 5l432 81l440 -81zM513 781l-5 1l-337 -57v-299h342v355zM853 426h-340v-426
q33 7 71.5 22.5t76 36.5t72 47t61.5 55.5t43 61.5t16 65v138z" />
    <glyph glyph-name="uniE617" unicode="&#xe617;" 
d="M512 896q106 0 199 -40.5t162.5 -110t110 -162.5t40.5 -199.5t-40.5 -199t-110 -162t-162.5 -110t-199 -40.5t-199 40.5t-162.5 110t-110 162t-40.5 199t40.5 199.5t110 162.5t162.5 110t199 40.5zM545 30q28 0 48 20t20 48q0 29 -20 49.5t-48 20.5t-48.5 -20.5
t-20.5 -49.5q0 -28 20.5 -48t48.5 -20zM611 308q0 14 19 32.5t42.5 45.5t42.5 63.5t19 86.5q0 32 -12.5 68t-40 66t-71.5 49t-106 19q-47 0 -82 -11.5t-58.5 -31t-38.5 -43.5t-22.5 -49.5t-10 -49t-2.5 -41.5q0 -24 20.5 -34.5t45 -8.5t45 14.5t20.5 34.5q0 13 2 30t10 31.5
t25 24t48 9.5q48 0 76.5 -26.5t28.5 -63.5q0 -19 -9 -38t-23 -36.5t-31 -33t-31 -28.5t-23.5 -23.5t-9.5 -17.5v-74q0 -10 19.5 -14.5t43.5 -4t44 5.5t20 17v32z" />
    <glyph glyph-name="uniE618" unicode="&#xe618;" 
d="M716.5 522q62.5 0 118.5 -23.5t98 -64.5t66.5 -95.5t24.5 -116t-24.5 -117t-66.5 -97t-98 -65.5t-118.5 -24t-116.5 24t-94 65.5t-63 97t-23 117t23 116t63 95.5t94 64.5t116.5 23.5zM886 255h-94l92 89l-46 46l-106 -99l34 -36h-111l33 44l-97 94l-39 -52l88 -86h-80
v-57h138v-45h-138v-50h138v-92h53v92h135v50h-135v45h135v57zM896 803q27 0 50.5 -10.5t41 -27.5t27 -40.5t9.5 -49.5v-152h-140q0 27 -12.5 38t-38.5 11h-626q-27 0 -47 -18t-20 -45v-385q0 -27 20 -46t47 -19h213v-140h-291q-27 0 -50.5 12t-41 32t-27.5 45t-10 51v616
q0 26 10 49.5t27.5 40.5t41 27.5t50.5 10.5h767z" />
    <glyph glyph-name="uniE619" unicode="&#xe619;" 
d="M552 775q87 -8 163 -45.5t132 -98t88 -139t32 -167.5q0 -94 -36 -176.5t-97.5 -144t-144.5 -97t-176 -35.5q-94 0 -177.5 35.5t-145 97t-97.5 144t-36 176.5q0 78 24.5 147.5t69 126.5t104.5 98.5t132 61.5q-9 25 -21 49.5t-23.5 44t-20.5 31.5t-11 12q64 -11 109 -30
t74 -38.5t42.5 -35t15.5 -17.5zM312 549q-24 0 -39.5 -14.5t-15.5 -34.5t15.5 -34.5t39.5 -14.5q22 0 38 14.5t16 34.5t-16 34.5t-38 14.5zM357 254q11 35 11.5 61t-18.5 45q-12 12 -20 19.5t-16.5 14.5t-19.5 15t-29 21l-35 -52l65 -39q11 -7 18 -16t9 -20.5t-5 -26.5
q-7 -14 -26 -35.5t-38 -40.5q-22 -23 -49 -47l84 -51q22 46 33.5 69.5t17 36t9 21.5t9.5 25zM813 196q7 57 7 103t-3 79q-3 38 -8 67q-10 30 -48 49q-17 7 -41 13t-58 7.5t-78.5 -2t-102.5 -14.5q4 9 8 16t6 13q4 7 5 13l-76 22q-10 -31 -24 -59q-12 -24 -28.5 -51
t-37.5 -44q15 -9 28 -14q11 -6 19 -10.5t8 -3.5q12 11 22 22.5t19 22.5q9 4 18.5 8t18.5 8q-11 -19 -27.5 -44t-33.5 -44l33 -29l12 13l13 14q9 8 18 18h43l3 -61h-124v-35h124v-74h-4h-15q-10 0 -20.5 1t-19.5 3t-11 6q-7 10 -4 27t4 29h-63l-7 -2q-6 -36 0 -65
q2 -12 7 -23.5t14.5 -20t23 -14t33.5 -4.5q38 -1 68 5t53 15t39.5 19.5t26.5 17.5l11 -40l61 25l-39 95h22v35h-108v61h106v35h-191q10 12 19.5 25.5t10.5 20.5l-32 8q63 11 113 11q21 0 41.5 -2t36.5 -8t25.5 -16t9.5 -25v-216q-2 -20 -11 -35q-8 -13 -25.5 -23t-49.5 -8
l-46 7l-11 -33q57 -17 103 -14q20 0 39 5.5t34.5 16.5t26.5 30t14 48zM643 229q-18 -13 -43 -22v66h63l-29 -10z" />
    <glyph glyph-name="uniE61A" unicode="&#xe61a;" 
d="M512 896q105 0 199 -40.5t163 -109.5t109.5 -163t40.5 -199t-40.5 -198.5t-109.5 -162.5t-163 -109.5t-199 -40.5q-71 0 -136.5 18.5t-122 51.5t-103.5 80t-80 103.5t-51.5 121.5t-18.5 136t18.5 136.5t51.5 122t80 103.5t103.5 80t122 51.5t136.5 18.5zM744 430h-186
v186h-92v-186h-186v-92h186v-186h92v186h186v92z" />
    <glyph glyph-name="uniE61B" unicode="&#xe61b;" 
d="M267 775.5q-8 6.5 -13.5 16t-7.5 20t0 20.5t10 19q9 9 16 8t15 -5t20 -9t30 -5q15 0 24.5 9t18 19t18 19t26 9t26 -9t17.5 -19t18 -18.5t28 -8.5q15 0 24 8.5t18 18.5t19.5 19t27 9t26 -9t17.5 -19t17.5 -19t25.5 -9q18 0 29.5 5t19.5 9t15 5t16 -8q8 -9 10 -19t0 -20.5
t-8 -20t-13 -16.5q-8 -6 -24 -23t-33 -34q-19 -21 -41 -44h-146h-148q-23 23 -41 44q-17 17 -33 34t-24 23.5zM689 629q75 -42 134 -100q24 -26 48.5 -57t43 -68.5t30.5 -81t12 -93.5q0 -84 -25.5 -149.5t-80 -111.5t-138 -70.5t-200.5 -24.5q-118 0 -202 24.5t-138.5 70.5
t-80 111.5t-25.5 149.5q0 50 11.5 93.5t30.5 81t42.5 68.5t48.5 57q59 58 135 100h354zM734 318h-123l78 105l-36 27l-79 -106l35 -26h-151l37 27l-79 107l-37 -27l79 -107h-123v-44h178v-89h-178v-45h178v-90h43v90h178v45h-178v89h178v44z" />
    <glyph glyph-name="uniE61C" unicode="&#xe61c;" 
d="M978 199q-7 -39 -28 -70q-17 -27 -52 -48.5t-94 -21.5q-39 0 -74 5.5t-61.5 17.5t-43.5 32t-20 48.5t8.5 60t34 57t54.5 42t70 16.5q65 0 113 -23v428l-465 -67l4 -571v-25q0 -31 -12.5 -60t-34.5 -51.5t-53 -36t-69 -13.5q-41 0 -76 7.5t-61.5 22.5t-43 37t-19.5 51
t8.5 56t34.5 48.5t55 36.5t70 19q29 4 56.5 0.5t52.5 -12.5v572l646 93v-651z" />
    <glyph glyph-name="uniE61D" unicode="&#xe61d;" 
d="M885 850q17 0 34 -8t30 -21t21 -30t8 -34v-466h-745q-39 0 -66 -37.5t-28 -121.5q0 -45 8 -76.5t20.5 -51.5t29.5 -29.5t35 -9.5h40h87h117h131h351l20 -47h-746q-139 0 -139 140v699q0 17 8 34t21 30t30 21t34 8h420v-373l67 93l72 -93l1 373h139zM978 244
q-14 -16 -26 -34q-9 -16 -16.5 -39t-7.5 -50.5t7.5 -47.5t16.5 -34q12 -16 26 -28h-745q-17 0 -26 18t-14 40q-6 25 -7 57q1 32 7 58q5 23 13.5 41.5t25.5 18.5h746z" />
    <glyph glyph-name="uniE61E" unicode="&#xe61e;" 
d="M420 850h93v-373q0 -9 -10.5 -17.5t-26 -15.5t-31.5 -10.5t-25 -3.5v-512q0 -19 -14 -32.5t-33 -13.5h-93q-20 0 -33.5 13.5t-13.5 32.5v512q-9 0 -24.5 3.5t-31 10.5t-26.5 15.5t-11 17.5v373h93v-327h47v327h93v-327h47v327zM745.5 850q139.5 0 139.5 -140v-792
q0 -19 -13.5 -32.5t-32.5 -13.5h-94q-19 0 -33 13.5t-14 32.5v373h-92v419q0 140 139.5 140z" />
    <glyph glyph-name="uniE61F" unicode="&#xe61f;" 
d="M512 896q105 0 198.5 -40.5t162.5 -109.5t109.5 -162.5t40.5 -198.5t-40.5 -198.5t-109.5 -162.5t-162.5 -109.5t-198.5 -40.5q-71 0 -136.5 18.5t-122 51.5t-103.5 80t-80 103.5t-51.5 121.5t-18.5 136t18.5 136t51.5 121.5t80 103.5t103.5 80t122 51.5t136.5 18.5z
M279 292q38 0 65.5 27t27.5 66t-27.5 66t-65.5 27t-65.5 -27t-27.5 -66t27.5 -66t65.5 -27zM512 60q39 0 66 27t27 65.5t-27 65.5t-66 27q-19 0 -36 -7.5t-30 -19.5t-20 -29t-7 -36.5t7 -36.5t20 -29t30 -19.5t36 -7.5zM465 385q0 -19 13.5 -33t33.5 -14q19 0 32.5 14
t13.5 33t-13.5 32.5t-32.5 13.5q-20 0 -33.5 -13.5t-13.5 -32.5zM512 524q39 0 66 27.5t27 66t-27 65.5t-66 27q-19 0 -36 -7.5t-30 -19.5t-20 -29t-7 -36.5t7 -36.5t20 -29.5t30 -20t36 -7.5zM744 292q38 0 65.5 27t27.5 66t-27.5 66t-65.5 27t-65.5 -27t-27.5 -66
t27.5 -66t65.5 -27z" />
    <glyph glyph-name="uniE620" unicode="&#xe620;" 
d="M501 419q-22 0 -35 13q-13 14 -13 36q0 20 13 34q12 13 33 13t35 -13q13 -13 13 -34q0 -23 -13 -36t-33 -13zM550 323q19 -17 19 -45q0 -27 -18 -44q-20 -16 -49 -16q-31 0 -50 18q-20 18 -20 43.5t21 43.5q19 18 50 18q28 0 47 -18zM931 736q39 0 66 -27t27 -66v-558
q0 -39 -27 -66t-66 -27h-93v46h-47v-46h-698q-39 0 -66 27t-27 66v558q0 39 27 66t66 27h698v-47h47v47h93zM278 585h-124l-49 -78h81v-355h92v433zM633 205q18 31 18 68q0 35 -16 64q-15 31 -45 49q21 23 32 45q8 22 8 43q0 35 -17 62q-17 29 -46 45q-29 15 -65 15
q-40 0 -69 -15q-30 -16 -46 -44q-16 -27 -16 -62q0 -25 10 -47q8 -20 30 -42q-32 -24 -45 -50q-16 -30 -16 -63q0 -39 18.5 -70.5t50.5 -46.5q31 -16 84 -16q49 0 79 17q30 14 51 48zM838 177h-47v-46h47v46zM838 316h-47v-47h47v47zM838 456h-47v-47h47v47zM838 595h-47
v-46h47v46z" />
    <glyph glyph-name="uniE621" unicode="&#xe621;" horiz-adv-x="1118" 
d="M821 710q41 34 93 42.5t97 -5.5t75.5 -48.5t30.5 -86.5v-385q0 -43 -12.5 -79t-37 -60.5t-58.5 -33t-77 3.5q-29 9 -52.5 22.5t-45 28t-43 26.5t-46.5 17h-372q-25 0 -47 -12t-43.5 -27.5t-45 -30.5t-51.5 -24q-43 -12 -77 -3.5t-58.5 33.5t-37.5 61.5t-13 79.5v383
q6 51 38 85.5t74 49t88.5 6t82.5 -42.5q15 -16 43.5 -39.5t65 -46t79.5 -38.5t88 -16q44 0 84.5 16.5t74.5 39t60 46t43 38.5zM232 245q20 0 37 7t29.5 19.5t20 29t7.5 36.5q0 39 -27.5 66t-66.5 27q-19 0 -36 -7t-29.5 -20t-20 -30t-7.5 -36q0 -39 27.5 -65.5t65.5 -26.5z
M978 384h-46v46h-93v-46h-47v-93h47v-46h93v46h46v93z" />
    <glyph glyph-name="uniE622" unicode="&#xe622;" horiz-adv-x="1138" 
d="M57 270h398v-398h-398v398zM683 270h398v-398h-398v398zM0 612h455v-285h-455v285zM1138 612v-285h-455v285h455zM512 612h114v-740h-114v740zM683 668h-228v171h228v-171zM1024 668h-284l111 228h173v-228zM399 668h-285v228h170z" />
    <glyph glyph-name="uniE623" unicode="&#xe623;" horiz-adv-x="1027" 
d="M318 326h133l-2 -136h-128zM641 319h128v-129h-128v129zM449 640h192v-129h-192v129zM893 831q29 0 53 -10.5t42 -29t28 -43.5t10 -54v-621q0 -29 -10 -54t-28 -43.5t-42 -29.5t-53 -11h-691q-29 0 -54 11t-43.5 29.5t-29 43.5t-10.5 54v621q0 29 10.5 54t29 43.5
t43.5 29t54 10.5h691zM512 67q-1 5 -1.5 29t-0.5 57v71q0 38 0.5 71.5t1 57.5t1.5 30q-6 -1 -25 -1.5t-45 -1t-55.5 -0.5t-56 0.5t-47 1t-27.5 1.5q1 -5 1.5 -28.5t1 -57t0.5 -72t-0.5 -72.5t-1 -59t-1.5 -32h61l3 65h128l2 -60h61zM385 447q10 2 35.5 3t59 1.5t70.5 0.5
t69 -0.5t55.5 -1t31.5 -1.5q-1 5 -2 24.5t-1.5 46t-0.5 56.5t0.5 56.5t1.5 46t2 24.5q-8 -1 -32 -1.5t-56.5 -1t-69.5 -0.5h-71q-33 0 -58 1t-34 2q1 -4 1.5 -22.5t0.5 -45.5v-58v-58q0 -27 -0.5 -46.5t-1.5 -25.5zM833 70q-2 5 -2 28v57v71v72q0 33 1 56.5t2 28.5
q-8 -1 -27.5 -1.5t-46 -1t-55.5 -0.5h-56q-25 0 -45 0.5t-26 1.5q1 -5 1.5 -29t0.5 -57v-72v-72q0 -34 -0.5 -58.5t-1.5 -31.5h59l4 65h128l3 -57h61z" />
    <glyph glyph-name="uniE624" unicode="&#xe624;" horiz-adv-x="1150" 
d="M976 621q37 -7 69 -25t55 -45.5t36.5 -62t13.5 -73.5q0 -43 -16.5 -81.5t-44.5 -66.5t-66.5 -44.5t-81.5 -16.5q-39 0 -74.5 13.5t-62.5 38.5q-18 -19 -38.5 -36t-42.5 -32h-456q-44 28 -78.5 65t-61.5 78t-46.5 84.5t-32.5 84.5q-32 95 -43 199h984q-1 -10 -3 -22
q-2 -11 -4 -25.5t-6 -32.5zM941 288q27 0 50 9.5t40.5 27t27.5 40.5t10 50q0 24 -8.5 45.5t-24 38.5t-36 28.5t-44.5 14.5q-15 -53 -39.5 -109.5t-61.5 -110.5q36 -34 86 -34zM898 126q27 0 46 -18.5t19 -45t-19 -45.5t-46 -19h-769q-27 0 -45.5 19t-18.5 45.5t18.5 45
t45.5 18.5h769z" />
    <glyph glyph-name="uniE625" unicode="&#xe625;" 
d="M769 446q27 0 45.5 -18t18.5 -45t-18.5 -46t-45.5 -19h-513q-27 0 -46 19t-19 46t19 45t46 18h513z" />
    <glyph glyph-name="uniE626" unicode="&#xe626;" 
d="M830 42q-11 -9 -27 -9q-19 0 -33.5 14.5t-14.5 33.5q0 22 17 36q1 1 2 1.5t2 1.5l1 1q27 19 50.5 44.5t41 55t27.5 63.5t10 70q0 73 -37.5 133.5t-92.5 99.5q-21 15 -21 39q0 20 14.5 34t33.5 14q17 0 29 -10q37 -26 68 -59.5t53.5 -73t35 -84.5t12.5 -93
q0 -49 -12.5 -94t-35.5 -85t-54 -73.5t-69 -59.5zM776 481q20 -28 32.5 -57t12.5 -70q0 -39 -13 -70.5t-32 -56.5q-8 -11 -17 -19t-22 -8q-18 0 -30 12.5t-12 29.5q0 8 3 16h-1q5 11 11.5 20.5t13 20t11 23.5t4.5 32q0 17 -4.5 30.5t-11 24t-13 20.5t-10.5 21q-3 6 -3 15
q0 18 12 30.5t30 12.5q13 0 22 -8t17 -19zM460 -99q-50 45 -105.5 93.5t-103.5 89.5q-55 47 -111 93q-11 -1 -22 -1q-8 -1 -18 -1h-17q-26 0 -42.5 16t-16.5 39v246h1l-1 1q0 27 17 44.5t42 17.5h56q90 77 163 137q31 27 61.5 51.5t55 45t41 34.5t20.5 17q29 21 47 19
t28.5 -17.5t14.5 -38t4 -40.5v-789v-3q0 -18 -7 -39t-21 -33.5t-35.5 -10.5t-50.5 29z" />
    <glyph glyph-name="uniE627" unicode="&#xe627;" 
d="M940 434q45 -53 1 -102l-317 -319q-11 -8 -22.5 -11.5t-24 -2.5t-23 5t-17.5 11q-115 115 -205 206l-76 77q-38 37 -67 66.5t-48 48.5l-19 19q-2 2 -6.5 8.5t-10 17.5t-9.5 24.5t-4 28.5v18q0 15 0.5 36.5t1 47t0.5 52.5q1 62 2 138q2 12 4.5 24.5t13.5 23.5
q10 10 23 13.5t23 3.5h311q2 1 14.5 0.5t15.5 -2.5q6 -2 13.5 -7t12.5 -10zM241.5 659q26.5 0 45 18.5t18.5 45.5t-18.5 45t-45 18t-45.5 -18t-19 -45t19 -45.5t45.5 -18.5z" />
    <glyph glyph-name="uniE628" unicode="&#xe628;" 
d="M816 657q6 5 12 9l10 8q6 4 10 7q10 9 22.5 7.5t20.5 -10t9 -22t-7 -21.5l-9 -9l-10 -10q-6 -5 -13 -11q13 -16 26 -42.5t24.5 -58.5t18.5 -67.5t7 -70.5q0 -85 -32.5 -160t-88 -130.5t-130 -88t-160 -32.5t-160.5 32.5t-130.5 88t-88 130.5t-32.5 160.5t32.5 160t88 130
t130.5 88t160 32.5q88 0 163 -33t127 -87zM527 703q-70 0 -131.5 -26.5t-107 -72.5t-72 -107.5t-26.5 -131.5t26.5 -131.5t72 -107.5t107 -72t131.5 -26t131.5 26t107.5 72t72.5 107.5t26.5 131.5t-26.5 131.5t-72.5 107.5t-107.5 72.5t-131.5 26.5zM595 839q0 -14 -7 -26
t-17 -20t-22 -12t-22 -4q-11 0 -23 4t-22.5 12t-17 19.5t-6.5 26.5v57h137v-57zM546 355q-9 -6 -18 -5.5t-15 8.5q-6 7 -5 16t9 17l208 176q7 5 17 5t16 -8t5 -17t-10 -17zM558 645q0 -12 -9 -21.5t-22 -9.5t-22 9.5t-9 21.5q0 13 9 22t22 9t22 -9t9 -22zM294 366
q0 -13 -9 -22t-22 -9t-22 9t-9 22t9 22t22 9t22 -9t9 -22zM557 94.5q0 -13.5 -9 -22.5t-22 -9t-22 9t-9 22.5t9 22t22 8.5t22 -8.5t9 -22zM820 366q0 -13 -9 -22t-21 -9q-14 0 -23 9t-9 22t9 22t23 9q12 0 21 -9t9 -22z" />
    <glyph glyph-name="uniE629" unicode="&#xe629;" 
d="M978 352v-265q0 -139 -185 -139h-584q-45 0 -76.5 11t-51.5 31.5t-28.5 49t-8.5 61.5v251h934zM507 311q-11 -2 -21 -6q-8 -4 -14 -12.5t-6 -24.5v-54h-60q-15 0 -27.5 -10t-12.5 -30q-1 -18 12 -29t28 -11h60v-59q0 -9 9.5 -23.5t30 -14.5t30.5 14.5t10 25.5v57h62
q12 0 25 10t13 30t-12 30t-28 10h-60v58q0 12 -10 25.5t-29 13.5zM355 627q-2 21 2 44q3 19 12 41t28 43q16 16 40.5 28t52 15.5t57.5 -2t56 -23.5q27 -18 39.5 -42.5t17.5 -48.5q7 -27 6 -55h-57q1 13 -1 26q-2 12 -6 25t-12 24q-9 13 -21 19.5t-23 10t-21.5 4.5t-14.5 1
q-9 1 -27.5 -2.5t-42.5 -21.5q-11 -10 -17 -24t-8 -29q-3 -16 -2 -33h-58zM190 403h-148v23v24q0 13 1 27q0 15 5.5 32.5t19.5 33t35.5 26.5t54.5 11h76h128h152h150h122h70q26 0 47.5 -8.5t37.5 -22.5t25.5 -33t9.5 -41v-71h-151v33q0 12 -10 22.5t-24.5 10.5t-27 -8
t-12.5 -25v-34h-486v33q-1 14 -12 24t-25.5 10t-26.5 -11.5t-12 -25.5v-21q0 -4 1 -9z" />
    <glyph glyph-name="uniE62A" unicode="&#xe62a;" horiz-adv-x="1028" 
d="M34 253q-32 35 -36.5 63.5t24.5 58.5q4 4 13.5 12t19.5 17t19 17t14 12q26 24 51.5 20.5t44.5 -24.5q10 -11 27 -28t34.5 -35.5t33.5 -35t26 -26.5q20 -20 47 -15.5t51 27.5q22 23 54.5 57t70.5 73t79 82t80 83.5t73.5 76.5t61.5 63q14 14 29 26.5t30.5 19t31 5.5
t32.5 -11q2 -3 11.5 -11.5t20.5 -18.5l21 -21l11 -12q14 -14 15.5 -30t-5 -32t-17 -30t-20.5 -25q-32 -31 -79 -79t-100.5 -102.5t-111 -113t-110 -112.5t-98 -101t-76.5 -76q-12 -13 -31 -19.5t-39.5 -7t-40.5 4.5t-33 18q-28 24 -59 55t-62 62.5t-58.5 60.5t-49.5 52z" />
    <glyph glyph-name="uniE62B" unicode="&#xe62b;" 
d="M887 150q29 -31 43 -56.5t-4 -58.5q-4 -6 -11.5 -15t-15 -17t-15 -14.5t-13.5 -10.5q-25 -15 -60 -8t-62 35l-43 43l-58 57l-67 68l-74 74l-131 -131q-61 -61 -98 -100q-39 -39 -77.5 -48t-68.5 18l-7 7l-11 11l-12 11q-6 7 -7 9q-11 14 -13 29t2.5 29t14 27.5t20.5 24.5
q9 8 33 31l55 57q34 33 75.5 74t86.5 86q-50 49 -94.5 93t-79.5 79t-57.5 57t-27.5 27q-27 27 -27.5 53t17.5 52q9 11 24 24.5t21 17.5q31 21 55.5 18.5t49.5 -28.5l32 -32q23 -23 58 -57t78.5 -76.5t90.5 -88.5q39 39 76.5 76t69.5 69l58 58q26 26 44 43q24 24 53 31.5
t55 -13.5q1 -1 7 -5t11.5 -9t10.5 -9.5t7 -5.5q28 -27 27.5 -58t-27.5 -58q-18 -18 -45.5 -46t-60.5 -60.5t-70 -69.5l-78 -78q38 -37 74.5 -72t67.5 -66t56 -56.5t42 -41.5z" />
    <glyph glyph-name="uniE62C" unicode="&#xe62c;" 
d="M512 831q92 0 173.5 -34.5t142.5 -95.5t95.5 -142.5t34.5 -173.5t-34.5 -173.5t-95.5 -142.5t-142.5 -95.5t-173.5 -34.5t-174 34.5t-142.5 95.5t-95.5 142.5t-35 173.5t35 173.5t95.5 142.5t142.5 95.5t174 34.5zM708 322q29 0 49 18t20 47q0 30 -20 46.5t-49 16.5h-393
q-29 0 -49 -16.5t-20 -46.5q0 -29 20 -47t49 -18h393z" />
    <glyph glyph-name="uniE62D" unicode="&#xe62d;" 
d="M660 24q7 0 -3 -15.5t-30 -34t-47 -34t-58 -15.5q-27 0 -53 15.5t-45.5 34t-29.5 34t-6 15.5h272zM914 111q8 -10 7.5 -18.5t-5 -14.5t-10.5 -9.5t-12 -3.5h-748q-14 0 -20.5 11.5t4.5 28.5q17 31 41 69t45 81.5t36 92t15 102.5q0 51 14.5 92t37.5 71.5t53 52t63 32.5
q-16 27 -16 56q0 42 28.5 70.5t70.5 28.5t70.5 -28.5t28.5 -70.5q0 -15 -4 -28.5t-11 -25.5q35 -11 66 -32.5t54 -53t37 -72.5t14 -91q0 -52 15.5 -101.5t37 -94t45.5 -81.5t43 -63zM478 754q0 -17 11.5 -28.5t27.5 -11.5h2q17 1 28 12t11 28t-11 28.5t-28.5 11.5t-29 -11.5
t-11.5 -28.5z" />
    <glyph glyph-name="uniE62E" unicode="&#xe62e;" 
d="M642 1v-11q0 -5 0.5 -11t0.5 -12q-1 -20 -10.5 -43t-37.5 -33q-11 -4 -28.5 -11.5t-53.5 -7.5q-30 0 -50 7t-31 9q-15 3 -23.5 13t-13 22t-5.5 24.5t-1 23.5v31zM863 666q26 -62 30 -117t-6 -101t-29.5 -82.5t-40 -64t-39 -45.5t-25.5 -24q-10 -9 -18.5 -13.5t-15.5 -7.5
t-13 -7.5t-12 -13.5q-13 -19 -20 -37.5t-13 -35.5q-5 -14 -11 -23t-13 -17q-8 -8 -16 -13h-224q-8 5 -15 13t-14.5 19t-12.5 28q-10 30 -24.5 47.5t-38.5 35.5q-16 12 -37 32t-41 47.5t-38.5 61.5t-29.5 75t-13 87t9 97q17 82 60 137t95.5 89t109 48.5t102.5 14.5
q48 0 99.5 -13t100 -41t88.5 -71.5t66 -104.5zM760 459q44 178 -114 271q-26 17 -61 26t-72 9t-73 -9t-64 -29q-69 -48 -93.5 -103.5t-22.5 -117.5q1 -35 11.5 -62.5t25.5 -50t30.5 -39t27.5 -29.5q26 -27 45 -47t31 -50q11 -30 35 -36.5t44 -6.5q26 0 50.5 12t34.5 36
q5 14 21 34.5t48 57.5q16 19 30.5 33t27.5 28.5t22.5 31t15.5 41.5z" />
    <glyph glyph-name="uniE62F" unicode="&#xe62f;" horiz-adv-x="1044" 
d="M595 779l21 -35q18 -30 45 -76t61 -104.5t69.5 -119.5t71 -121t64.5 -110t50 -86t30 -49q15 -26 18.5 -51.5t-3 -46t-23.5 -33.5t-41 -12q-13 0 -53 1t-96 1h-128h-144q-74 0 -146.5 -1t-135.5 -1h-110h-69q-39 0 -60 13.5t-28 34.5t-1.5 45.5t19.5 46.5q7 11 28 46
t51 84.5t65.5 109.5t72.5 122t72 120t62.5 105.5t46.5 77.5l21 36q14 23 37 34.5t48 11.5t48 -10.5t37 -32.5zM569 579q0 12 -5.5 22.5t-14.5 19.5t-21 14t-24 5q-24 0 -44 -18.5t-20 -41.5v-269q0 -23 20 -42t44 -19t44.5 18t20.5 41v270zM504 189q-27 0 -46 -18t-19 -45
t19 -46t46 -19t45 19t18 46t-18 45t-45 18z" />
    <glyph glyph-name="uniE630" unicode="&#xe630;" 
d="M513 865q99 0 187 -37.5t154 -104t103.5 -154.5t37.5 -187q0 -100 -37.5 -188.5t-103.5 -154t-154 -103t-187 -37.5q-100 0 -188 37.5t-154 103t-103.5 154t-37.5 188.5q0 99 37.5 187t103.5 154.5t154 104t188 37.5zM544 23q28 0 48 19.5t20 48.5q0 30 -20 50t-48 20
q-30 0 -50 -20t-20 -50q0 -29 20 -48.5t50 -19.5zM609 301q0 13 19 31.5t42 46t42.5 63.5t19.5 85q0 33 -12.5 69t-40.5 65.5t-71.5 49t-104.5 19.5q-72 0 -114.5 -25t-64.5 -61t-28.5 -74.5t-6.5 -64.5q0 -25 20.5 -35t44.5 -8.5t44.5 14t20.5 34.5q0 13 1.5 29.5t10 31.5
t26 24.5t48.5 9.5q48 0 76 -26.5t28 -62.5q0 -30 -20 -57.5t-43.5 -50.5t-43.5 -41t-20 -28v-75q0 -9 20 -13.5t43.5 -4t43.5 5.5t20 16v33z" />
    <glyph glyph-name="uniE631" unicode="&#xe631;" 
d="M883 230q33 -21 53 -56.5t20 -77.5q0 -34 -12.5 -62.5t-34 -50t-50.5 -34t-63 -12.5q-42 0 -77 20t-56 53q-4 4 -7 8.5t-8 9.5q-17 22 -21 54.5t-3 67.5t2 69t-5 60q-11 20 -25 44t-31 48q-3 4 -5.5 7t-4.5 6q-20 -23 -38 -46.5t-37 -48.5q-5 -6 -9 -12t-9 -12
q-9 -19 -9 -33.5t3.5 -28t8 -27.5t5 -33t-5 -44.5t-21.5 -60.5q-17 -46 -57.5 -74.5t-92.5 -28.5q-33 0 -62 12.5t-50.5 34.5t-34.5 50.5t-13 62.5q0 36 15.5 67.5t41.5 53.5q25 27 53 44.5t55.5 32.5t52 30.5t43.5 36.5q4 5 7.5 10t7.5 10l1 1q4 8 11 15q14 19 28 38.5
t30 39.5q-27 28 -45.5 45t-35.5 40q-36 47 -60 97.5t-37.5 96t-14 81.5t12.5 53q7 5 20.5 7.5t21.5 -9.5q18 -27 41.5 -62.5t50.5 -76.5t56.5 -85.5t58.5 -87.5q7 8 12.5 16.5t11.5 16.5q27 39 52.5 81t47 80.5t38.5 69.5t26 47q7 11 24 11.5t29 -10.5q6 -6 11 -34.5
t-3 -74.5t-32.5 -105t-77.5 -126l-32 -40q-16 -21 -34 -41q24 -35 44.5 -66.5t37.5 -56.5q26 -27 51.5 -42t49 -25.5t43.5 -19.5t36 -24zM292.5 22q32.5 0 55 23t22.5 55.5t-22.5 56t-55 23.5t-56 -23.5t-23.5 -56t23.5 -55.5t56 -23zM795 22q33 0 55.5 22.5t22.5 55
t-22.5 56t-55 23.5t-56 -23.5t-23.5 -55.5q0 -16 6.5 -30.5t17 -25t25 -16.5t30.5 -6z" />
    <glyph glyph-name="uniE632" unicode="&#xe632;" 
d="M815 826q28 -25 44.5 -42t25 -29t10.5 -20t2 -14v-16h-152q-10 0 -17.5 7.5t-12.5 17.5t-7.5 21t-2.5 17v127h3q8 0 16.5 -2.5t20 -9.5t28.5 -20.5t42 -36.5zM640 767q0 -21 6 -43t19.5 -40.5t34 -31t48.5 -12.5h149v-578q0 -29 -12 -52.5t-31 -40t-43 -26t-46 -9.5h-504
q-19 0 -42 11.5t-43 30t-33.5 42t-13.5 49.5v696q0 21 9.5 44t26.5 42.5t38.5 32.5t45.5 13h391v-128zM705 128q26 0 44.5 19t18.5 45.5t-18.5 45t-44.5 18.5h-384q-27 0 -45.5 -18.5t-18.5 -45t18.5 -45.5t45.5 -19h384zM768 447.5q0 26.5 -18.5 45.5t-44.5 19h-384
q-27 0 -45.5 -19t-18.5 -45.5t18.5 -45t45.5 -18.5h384q26 0 44.5 18.5t18.5 45z" />
    <glyph glyph-name="uniE633" unicode="&#xe633;" horiz-adv-x="1069" 
d="M746 706q-11 0 -19 7.5t-13 18t-7.5 21t-2.5 17.5v126h2q9 0 17.5 -2t20 -9.5t28.5 -21.5t42 -36q28 -25 44.5 -42t25 -28.5t10.5 -20t2 -14.5v-16h-150zM1064 225q3 -9 4 -21t-10 -23q-5 -5 -9.5 -10t-7.5 -8q-4 -4 -7 -6l-87 86q6 5 14 12t13 11q12 12 26.5 10.5
t23.5 -6.5q10 -6 22 -18.5t18 -26.5zM703 130q23 0 38 12l-198 -207h-282q-20 0 -43 11.5t-43 30t-33 42.5t-13 49v696q0 22 9.5 45.5t26.5 42t38.5 31.5t44.5 13h392v-128q0 -19 6 -41.5t19 -41.5t33 -31.5t49 -12.5h149v-339l-140 -145q11 16 11 36q0 26 -18.5 45
t-45.5 19h-383q-27 0 -45 -19t-18 -45.5t18 -44.5t45 -18h383zM320 513q-27 0 -45 -19t-18 -45.5t18 -45t45 -18.5h383q27 0 45.5 18.5t18.5 45t-18.5 45.5t-45.5 19h-383zM705 1l13 13l26 26q15 15 33.5 34t36.5 37q44 44 100 98l85 -86l-99 -99l-36 -37l-34 -33
q-14 -15 -24 -25l-11 -11q-5 -4 -11 -8.5t-12.5 -7.5t-19 -8t-26 -9t-25.5 -7t-18 -4q-13 -2 -17 3t-2 17q1 7 4 19t7.5 25t8 24t5.5 15q6 14 16 24z" />
    <glyph glyph-name="uniE634" unicode="&#xe634;" horiz-adv-x="1093" 
d="M749 706q-10 0 -18 7t-13 17.5t-7.5 21t-2.5 17.5v127h2q8 0 17 -2.5t20.5 -9.5t28.5 -21t42 -37q28 -24 44 -41.5t24.5 -29t10.5 -20t2 -14.5v-15h-150zM867 322q48 0 88.5 -17.5t71.5 -48t48.5 -71.5t17.5 -88t-17.5 -88t-48.5 -71.5t-71.5 -48t-88.5 -17.5
q-46 0 -86.5 17.5t-71.5 48t-49 71.5t-18 88t18 88t49 71.5t71.5 48t86.5 17.5zM995 61q10 0 17 10.5t7 24.5t-7 24.5t-17 10.5h-97v90q0 8 -8.5 14t-24 6t-23 -6t-7.5 -14v-113q-2 -8 -2 -12q0 -14 7 -24.5t16 -10.5h139zM576 128q-1 -7 -1 -15v-15q0 -46 13.5 -87
t36.5 -77h-362q-20 0 -43 11.5t-42.5 30t-33 42t-13.5 48.5v698q0 22 10 45t26.5 42t38 32t45.5 13h391v-128q0 -20 6.5 -42t19.5 -41.5t33.5 -32t48.5 -12.5h149v-254q-8 2 -17 2h-19q-76 0 -139.5 -36t-102.5 -96h-298q-26 0 -45 -18.5t-19 -45t19 -45.5t45 -19h253z
M323 512q-26 0 -45 -18.5t-19 -45.5t19 -45t45 -18h384q26 0 44.5 18t18.5 45t-18.5 45.5t-44.5 18.5h-384z" />
    <glyph glyph-name="uniE635" unicode="&#xe635;" horiz-adv-x="1094" 
d="M749 706q-10 0 -18 7.5t-13 18t-7.5 21t-2.5 17.5v126h2q9 0 17.5 -2t20 -9.5t28.5 -21.5t42 -37q28 -24 44.5 -41t24.5 -28.5t10.5 -20t2.5 -14.5v-16h-151zM867 323q48 0 88.5 -18t71.5 -48.5t49 -71.5t18 -87q0 -47 -18 -88t-49 -71.5t-71.5 -48.5t-88.5 -18
q-46 0 -86.5 18t-71.5 48.5t-49 71.5t-18 88q0 46 18 87t49 71.5t71.5 48.5t86.5 18zM912 97l68 68q9 9 9 22t-9 22.5t-22.5 9.5t-22.5 -9l-68 -68l-68 68q-9 9 -22.5 9t-22.5 -9.5t-9 -22.5t9 -22l67 -68l-67 -68q-9 -10 -9 -23t9 -22.5t22.5 -9.5t22.5 10l68 67l68 -67
q9 -10 22.5 -10t22.5 9.5t9 22.5t-9 23zM576 129q-1 -8 -1 -15v-15q0 -46 13.5 -87.5t37.5 -76.5h-363q-20 0 -43 11.5t-42.5 30t-33 42t-13.5 48.5v697q0 22 10 45.5t27 42t38.5 31.5t45.5 13h391v-128q0 -19 6.5 -41.5t19 -41.5t33 -32t49.5 -13h149v-253q-9 1 -18 1.5
t-18 0.5q-76 0 -140 -36t-103 -96h-298q-26 0 -45 -19t-19 -45.5t19 -45t45 -18.5h253zM323 512q-26 0 -45 -18t-19 -45t19 -45.5t45 -18.5h384q26 0 45 18.5t19 45.5t-19 45t-45 18h-384z" />
    <glyph glyph-name="uniE636" unicode="&#xe636;" horiz-adv-x="1026" 
d="M747 706q-11 0 -18.5 7.5t-12.5 18t-8 21t-3 16.5v127h3q9 0 17 -2.5t20 -9.5t28.5 -21t42.5 -37q28 -24 44 -41.5t25 -28.5t11 -19.5t2 -14.5v-16h-151zM765 100q-37 -8 -66 -20q-24 -11 -43.5 -30.5t-16.5 -49.5q2 -20 3 -36t2 -29h-382q-20 0 -43 11t-43 29.5
t-33 42.5t-13 49v697q0 22 9.5 45.5t26.5 42t38.5 31.5t44.5 13h392v-128q0 -20 6 -42t19.5 -41.5t34 -32t47.5 -12.5h150v-305l-42 -67l-90 106q-18 -20 -30 -39q-11 -18 -20 -38t-12 -40h-383q-27 0 -45 -19t-18 -45.5t18 -45t45 -18.5h383q24 0 39 12q5 -9 9 -17t7 -13
q4 -6 6 -11zM321 513q-27 0 -45 -19t-18 -45.5t18 -45t45 -18.5h383q27 0 46 18.5t19 45t-19 45.5t-46 19h-383zM955 15q6 -3 18.5 -7.5t24 -12t20.5 -21.5t8 -36q-2 -28 -17 -43.5t-35.5 -20.5t-41.5 2t-32 25q-15 24 -13 47t6 48q2 15 -0.5 21t-6.5 11q-2 2 -5.5 6.5
t-6.5 9.5q-4 5 -8 12q-3 -6 -7 -10q-3 -4 -6.5 -9t-6.5 -10q-8 -9 -8.5 -15.5t1.5 -14.5q1 -4 3 -15t1 -25.5t-5.5 -30.5t-15.5 -30q-15 -18 -35.5 -22.5t-39.5 2.5t-32.5 22.5t-13.5 38.5q-1 21 7.5 35.5t20.5 23.5t25.5 15t22.5 9q18 7 25.5 12.5t13.5 13.5q3 4 7.5 11
t9.5 13q5 7 11 15q-5 4 -9 10t-9.5 13t-11.5 16q-7 8 -14.5 20t-13.5 23.5t-10.5 21.5t-5.5 15q-4 10 -6 26.5t6 21.5t11 0.5t9 -12.5q2 -4 14.5 -23t26.5 -40q17 -25 35 -55q15 25 28 46q11 18 21 35.5t14 23.5q8 13 12.5 19.5t6.5 8.5t6.5 0.5t7.5 -6.5q2 -5 1.5 -14
t-2.5 -26q-2 -8 -6.5 -18.5t-9.5 -20.5t-10.5 -19.5t-8.5 -13.5q-3 -5 -9.5 -13t-12.5 -16q-7 -11 -15 -21q5 -8 9 -14t7.5 -11.5t5.5 -9.5q6 -11 19 -21t25 -16zM774 -85q14 0 24 10t10 24.5t-10 24t-24 9.5t-24 -9.5t-10 -24t10 -24.5t24 -10zM957 -98q15 0 26 11t11 26
t-11 26t-26 11t-26 -11t-11 -26t11 -26t26 -11z" />
    <glyph glyph-name="uniE637" unicode="&#xe637;" 
d="M639 704q30 0 54 -13t41.5 -32.5t26.5 -42t9 -40.5v-576q0 -30 -11.5 -53.5t-30.5 -40t-42.5 -25.5t-46.5 -9h-504q-19 0 -42 11t-43 29.5t-33 42.5t-13 49v568q0 22 10 45t26.5 42.5t38 32t44.5 12.5h516zM578 66q27 0 46 18.5t19 45t-19 45.5t-46 19h-382
q-27 0 -46 -19t-19 -45.5t19 -45t46 -18.5h382zM578 321q27 0 46 18.5t19 45t-19 45.5t-46 19h-382q-27 0 -46 -19t-19 -45.5t19 -45t46 -18.5h382zM759 896q44 0 80.5 -26t64 -64.5t42.5 -82.5t15 -81v-542q0 -22 -12.5 -40t-31 -30.5t-40 -20t-39.5 -7.5h-4v609
q-9 71 -44.5 108.5t-94.5 48.5h-498q1 2 1 8q0 20 12 41.5t32 39t44.5 28.5t48.5 11h424z" />
    <glyph glyph-name="uniE638" unicode="&#xe638;" horiz-adv-x="1025" 
d="M748 705q-10 0 -18 7.5t-13 18t-7.5 21t-2.5 17.5v126h2q8 0 16.5 -2t20.5 -9.5t29 -21.5t42 -37q28 -24 44 -41t24.5 -28.5t10.5 -20t2 -14.5v-16h-150zM511 128q0 -59 24 -109t64 -86h-337q-20 0 -43 11.5t-42.5 30t-33 42.5t-13.5 49v697q0 22 10 45.5t27 42
t38.5 31.5t45.5 13h390v-128q0 -19 6.5 -41.5t19.5 -41.5t33.5 -32t48.5 -13h149v-284q-28 16 -60 25t-67 9q-73 0 -133 -36.5t-94 -96.5h-222q-26 0 -45 -19t-19 -45.5t19 -45t45 -18.5h189zM322 511q-26 0 -45 -18t-19 -45t19 -45.5t45 -18.5h384q26 0 45 18.5t19 45.5
t-19 45t-45 18h-384zM1009 -61q14 -18 15.5 -29.5t-9.5 -24.5q-13 -14 -27 -13t-29 12l-86 84q-28 -17 -60.5 -25t-64 -5t-61.5 16t-55 39q-27 27 -41.5 63t-14.5 73t14.5 72t41.5 64q28 27 62.5 41.5t71.5 14.5t72.5 -14.5t62.5 -41.5q25 -26 38 -56.5t15.5 -63t-5 -64
t-24.5 -59.5zM767 2q26 0 48.5 10t39.5 27t26.5 40t9.5 50q0 25 -9.5 48t-26.5 40.5t-39.5 27.5t-48.5 10t-48.5 -10t-39.5 -27.5t-27 -40.5t-10 -48q0 -27 10 -50t27 -40t39.5 -27t48.5 -10z" />
    <glyph glyph-name="uniE639" unicode="&#xe639;" 
d="M512 833q93 0 176 -35.5t144.5 -96.5t97.5 -143t36 -175t-36 -175t-97.5 -143t-144.5 -96.5t-176 -35.5q-94 0 -176.5 35.5t-144 96.5t-97 143t-35.5 175t35.5 175t97 143t144 96.5t176.5 35.5zM706 323q26 0 44.5 18t18.5 45t-18.5 46t-44.5 19h-128v191q0 27 -19 46
t-46 19t-45 -19t-18 -46v-256q0 -27 18 -45t45 -18h193z" />
    <glyph glyph-name="uniE63A" unicode="&#xe63a;" 
d="M855 511q19 -2 38.5 -10t34 -23t21.5 -37.5t2 -54.5q-2 -8 -8 -40.5t-14 -74.5t-18.5 -86.5t-19.5 -75.5q-5 -19 -15 -38.5t-25 -35.5t-36.5 -26t-51.5 -10h-567q-22 0 -45 9t-42.5 26t-31.5 41t-12 54v439q0 63 33.5 98t95.5 35h503q23 0 47 -8.5t43.5 -24t31.5 -36
t12 -43.5v-11h-53q-41 0 -95.5 0.5t-116.5 0.5t-116 0.5t-93 0.5h-47q-26 0 -41 -17t-23 -45q-8 -30 -18.5 -63t-18.5 -62q-10 -34 -21 -65q-2 -9 -2 -14q0 -17 12 -29t29 -12q32 0 43 40l55 199q133 -1 243 -1h287z" />
    <glyph glyph-name="uniE63B" unicode="&#xe63b;" 
d="M590 372q-31 -31 -51 -68.5t-28.5 -77.5t-6 -81t16.5 -79h-388q-21 0 -44.5 8.5t-42.5 25.5t-32 41t-13 55v438q0 62 34.5 97.5t94.5 35.5h31h60h78q44 0 88.5 0.5t87.5 0.5h77h56h26q23 0 47.5 -9t43 -24.5t31 -36t12.5 -43.5v-12q-54 0 -126 -0.5t-144 -0.5h-141h-110
q-26 0 -41 -15.5t-23 -42.5q-8 -30 -18 -64.5t-19 -63.5l-20 -70q-4 -14 6.5 -30t31.5 -16q16 0 27 9t16 25l54 204l534 -1q19 -3 38 -11t33 -23t20.5 -37.5t1.5 -53.5q0 -2 -0.5 -4t-0.5 -5q-77 25 -157 7t-140 -78zM801 382q46 0 86 -17.5t70 -47.5t47.5 -70t17.5 -86
t-17.5 -86t-47.5 -70.5t-70 -47.5t-86 -17t-86 17t-70.5 47.5t-47.5 70.5t-17 86t17 86t47.5 70t70.5 47.5t86 17.5zM930 132q13 0 22.5 9.5t9.5 22.5t-9.5 22.5t-22.5 9.5h-96v96q0 13 -9.5 22.5t-22.5 9.5q-15 0 -24 -9.5t-9 -22.5v-96h-95q-15 0 -24 -9.5t-9 -22.5
t9 -22.5t24 -9.5h95v-96q0 -13 9 -22.5t24 -9.5q13 0 22.5 9.5t9.5 22.5v96h96z" />
    <glyph glyph-name="uniE63C" unicode="&#xe63c;" 
d="M798 454q-61 0 -113.5 -22.5t-91.5 -62t-62 -92.5t-23 -113q0 -50 17 -97h-392q-21 0 -44 9t-42.5 26t-32 41t-12.5 54v42v82q0 47 -0.5 100.5t-0.5 99.5v79v36q0 61 34.5 97t94.5 36h504q23 0 47.5 -8.5t43 -24t31 -36t12.5 -44.5v-13h-517q-51 0 -68 -57
q-8 -30 -18 -63.5t-19 -61.5q-10 -34 -20 -66q-2 -8 -2 -14q0 -16 11 -28t28.5 -12t27 12.5t14.5 27.5l56 197h542q18 -4 35.5 -12.5t30.5 -23.5t18.5 -37t0.5 -51q0 -2 -0.5 -5.5t-1.5 -8.5q-40 14 -88 14zM803 385q46 0 86 -17.5t70 -47.5t47.5 -70t17.5 -86t-17.5 -86
t-47.5 -70.5t-70 -47.5t-86 -17t-86 17t-70.5 47.5t-47.5 70.5t-17 86t17 86t47.5 70t70.5 47.5t86 17.5zM846 167l67 69q10 9 10 22t-9.5 22.5t-22.5 9.5t-23 -9l-68 -69l-68 69q-9 9 -22.5 9t-22.5 -9.5t-9 -22.5t9 -22l68 -69l-68 -68q-9 -9 -9 -22.5t9 -22.5
q9 -10 22.5 -10t22.5 10l68 68l68 -68q10 -10 23 -10t22 10q10 9 10 22.5t-10 22.5z" />
    <glyph glyph-name="uniE63D" unicode="&#xe63d;" 
d="M385 510h-129v151q0 49 19.5 91.5t54 74.5t81 50.5t101.5 18.5q49 0 94.5 -18.5t81 -50.5t56.5 -74.5t21 -91.5v-151h-124v122q0 65 -36 100t-97 35q-55 0 -89 -35t-34 -100v-122zM826 449q28 0 48 -20t20 -48v-317q0 -27 -10 -51t-27 -42t-40 -28.5t-50 -10.5h-517
q-28 0 -50.5 10.5t-38 27.5t-24.5 39.5t-9 47.5v324q0 28 19.5 48t47.5 20h61h129h256h124h61z" />
    <glyph glyph-name="uniE63E" unicode="&#xe63e;" 
d="M538.5 896q100.5 0 188.5 -38t153.5 -103.5t103 -153.5t37.5 -187q0 -100 -37.5 -187.5t-103 -153.5t-153.5 -104t-188.5 -38t-188 38t-153 104t-103 153.5t-37.5 187.5q0 99 37.5 187t103 153.5t153 103.5t188 38zM899 446q-6 65 -34 123t-71.5 102t-101 71.5
t-123.5 32.5v-98q45 -6 85 -25.5t70 -50t50 -70.5t25 -85h100zM569 446h127q-9 48 -43.5 83t-83.5 44v-127zM508 573q-49 -9 -84.5 -43.5t-44.5 -83.5h129v127zM379 383q9 -49 44.5 -84t84.5 -44v128h-129zM569 256q49 9 83.5 43.5t43.5 83.5h-127v-127zM508 776
q-67 -6 -124.5 -33.5t-101.5 -71.5t-71.5 -102t-33.5 -123h97q5 46 25 86t51 70.5t71.5 50t86.5 24.5v99zM177 383q7 -65 34.5 -123t71.5 -101.5t101.5 -71t123.5 -32.5v97q-46 5 -86.5 24.5t-71.5 50.5t-51 70.5t-25 85.5h-97zM569 55q66 6 123 33.5t101 71t71.5 101
t33.5 122.5h-99q-5 -45 -25 -84.5t-50 -70.5t-70 -50.5t-85 -25.5v-97z" />
    <glyph glyph-name="uniE63F" unicode="&#xe63f;" 
d="M889 358q-47 1 -98 -3q-44 -3 -99.5 -10t-114.5 -22l151 -249q10 -19 11.5 -39.5t-4.5 -39.5t-19 -34.5t-32 -26.5q-19 -10 -39.5 -11.5t-39 4.5t-34.5 19t-26 32l-126 279q-51 -29 -92.5 -63t-71.5 -63q-34 -34 -61 -69l-2 834z" />
    <glyph glyph-name="uniE640" unicode="&#xe640;" 
d="M802 404q32 0 60.5 -12t50 -33.5t33.5 -50t12 -60.5q0 -33 -12 -61t-33.5 -49.5t-50 -34t-60.5 -12.5q-30 0 -56 11t-47 28v-128q0 -28 -19.5 -47.5t-46.5 -19.5h-505q-28 0 -48 19.5t-20 47.5v114q6 21 19 31.5t39 -5.5q12 -7 18 -8q27 -13 54.5 -13t51.5 10t42 28
t28.5 41.5t10.5 51.5t-10.5 52t-28.5 42t-42 28t-52 10q-26 0 -52 -11q-6 -2 -10 -4q-12 -7 -24 -12t-21 -4t-15.5 10.5t-7.5 30.5v108q0 27 20 47t48 20h160q-17 21 -26.5 46t-9.5 54q0 33 13 62.5t34.5 51t50.5 34t61.5 12.5t62 -12.5t51 -34t34 -51t12.5 -62.5
q0 -58 -35 -100h97q27 0 46.5 -20t19.5 -47v-136q21 17 47 27.5t56 10.5z" />
    <glyph glyph-name="uniE641" unicode="&#xe641;" horiz-adv-x="1033" 
d="M383 391q0 -30 -16 -38t-40 13q-26 19 -56 46t-61.5 56t-62 56.5t-57.5 48.5q-25 21 -26 38t23 37q25 20 53.5 46.5t58.5 54.5t60.5 56t56.5 49q29 24 48 18t19 -35v-23q0 -12 0.5 -26t1 -27t0.5 -23q0 -21 12.5 -26t34.5 -5h57h93q53 0 112 0.5t111 0.5h94h58
q11 0 22.5 -1.5t22 -8t16.5 -17.5t6 -31q0 -22 0.5 -39t0.5 -43q0 -36 -17.5 -48t-53.5 -12h-49q-37 0 -87.5 -0.5t-108.5 -0.5h-109h-92h-55q-32 0 -50.5 -6t-18.5 -30q1 -16 0 -39t-1 -41zM1008 264q24 -20 24 -37.5t-23 -37.5q-25 -20 -65.5 -46t-84.5 -54t-86 -54.5
t-68 -47.5q-30 -24 -48.5 -18t-17.5 36q0 18 -1 45t-1 46q0 21 -4.5 26.5t-26.5 5.5q-16 0 -48 0.5t-73 0.5h-84h-84q-41 0 -73.5 0.5t-48.5 0.5q-12 0 -23 2t-21 8t-16 17.5t-6 30.5v75q1 36 18 48.5t53 12.5q11 0 40 -0.5t67 -0.5h81h83q39 0 70 -0.5t47 -0.5
q32 -1 42.5 5t10.5 28q0 9 0.5 20.5t0.5 24.5t0.5 25t0.5 21q1 30 17 38t40.5 -12.5t66 -47.5t86 -55.5t86.5 -55.5t69 -49z" />
    <glyph glyph-name="uniE642" unicode="&#xe642;" 
d="M633 397q39 -14 72 -39t57 -58.5t37 -73.5t13 -83q0 -57 -21.5 -106t-58.5 -86t-86 -58t-105 -21t-105 21t-86.5 58t-58.5 86t-21 106q0 44 13.5 84t37.5 73.5t57.5 58.5t72.5 39v405q0 18 6.5 34.5t18 29.5t27.5 21t34 8t35.5 -8t31 -21t21.5 -29.5t8 -34.5v-406z
M543 49q38 0 65 27t27 67q0 39 -27 66t-65 27q-40 0 -67 -27t-27 -66q0 -40 27 -67t67 -27zM751 775q62 0 62 -58v-63q0 -34 -17 -47t-37 -13h-67v181h59z" />
    <glyph glyph-name="uniE643" unicode="&#xe643;" 
d="M127 697q0 13 21.5 16.5t54 7t71.5 12.5t73 33q25 17 46 35.5t40.5 36t38.5 32t40 22.5v-380h-381q-2 42 -3 87.5t-1 97.5zM471 -106q-56 43 -101 81t-80.5 76t-61.5 78t-44.5 87t-30.5 103t-18 126h377v-568q-11 3 -21.5 7t-19.5 10zM576 445h375q-5 -70 -15.5 -125
t-27.5 -100.5t-42 -84t-59 -77t-79 -80t-102 -91.5q-22 -12 -50 -15v573zM757 751q29 -21 63.5 -27t65.5 -8t52 -3.5t21 -11.5q0 -106 -3 -189h-380v384q26 -6 48.5 -23t43.5 -38t42.5 -43.5t46.5 -40.5z" />
    <glyph glyph-name="uniE644" unicode="&#xe644;" 
d="M420 511l27 59v-59h-27zM195 637h120v-126h-52l42 27l-34 79l-55 -17l33 -89h-54v126zM413 614l-28 -52v75h62v-44zM403 511h-18v14zM825 830q28 0 53 -10.5t43.5 -29t29.5 -43t11 -53.5v-622q0 -29 -11 -53.5t-29.5 -43t-43.5 -29.5t-53 -11h-689q-27 0 -52.5 11
t-43.5 29.5t-29 43t-11 53.5v622q0 29 11 53.5t29 43t43.5 29t52.5 10.5h689zM319 317v-66l-198 -4l5 -72l383 21l3 62l-129 -3v62h130v68h-130v60h130v263h-385v-263h191v-60h-192v-68h192zM185 37q9 25 13.5 50t6.5 30l-73 10q-5 -18 -7 -26t-4 -13.5t-5 -13t-10 -24.5z
M315 62q-10 29 -12 41t-6 24l-46 -7q1 -3 5.5 -23t6.5 -44zM432 63q-5 14 -7.5 19.5t-5 10t-5 11t-7.5 21.5l-56 -2q0 1 0.5 -4.5t3 -15t7.5 -20.5t13 -21zM798 40q1 2 7.5 10t13 17.5t13 17t8.5 10.5q-37 33 -60.5 64.5t-38.5 71t-23.5 91t-16.5 123.5h133v66h-126l-3 195
l-66 -3l2 -192h-64v-66h56q1 -91 -16 -153t-36 -99q-24 -46 -55 -72l-22 37l-54 -24q14 -20 27 -39q11 -16 23.5 -34t21.5 -31q36 36 62 61.5t45 52.5t31.5 63t19.5 93q6 -56 12 -91t18 -61t32 -49.5t56 -58.5zM855 642l-51 71l-49 -26l54 -72z" />
    <glyph glyph-name="uniE645" unicode="&#xe645;" 
d="M564 852q43 0 58.5 -20.5t15.5 -65.5q0 -21 0.5 -65t0.5 -93.5t0.5 -96.5t0.5 -75q0 -39 7.5 -62t35.5 -22q19 0 48 -1t49 -1q36 0 46 -19t-14 -49q-25 -31 -57.5 -73t-68 -86t-69 -86.5t-59.5 -75.5q-23 -30 -45.5 -31t-45.5 28q-25 30 -57.5 70t-67 82.5t-67.5 84
t-60 73.5q-30 36 -22.5 59t44.5 23h24q14 0 29.5 0.5t30.5 1.5t26 1q27 0 33 15.5t6 42.5q0 29 -0.5 77.5t-0.5 100.5t-0.5 101t-0.5 80q0 13 2 27.5t9.5 26.5t21 19.5t37.5 7.5q27 0 52.5 0.5t57.5 0.5z" />
    <glyph glyph-name="uniE646" unicode="&#xe646;" 
d="M967 329q0 -43 -20.5 -58.5t-65.5 -15.5h-65q-44 0 -93.5 -0.5t-96.5 -0.5h-75q-39 0 -62 -7.5t-22 -35.5q0 -21 -1 -49t-1 -49q0 -36 -19.5 -46t-50.5 14q-30 24 -72 57.5t-85.5 68.5t-86 68.5t-75.5 59.5q-31 24 -31.5 46t28.5 46q28 25 68 57t83 66.5t84.5 68
t74.5 60.5q36 29 59 22t23 -44v-25q0 -15 1 -30v-30q1 -15 1 -26q1 -26 16.5 -32.5t41.5 -6.5q30 0 78 0.5t100.5 0.5t101.5 0.5t80 0.5q13 0 27.5 -2t26 -10t19.5 -21.5t8 -36.5q0 -27 0.5 -53t0.5 -57z" />
    <glyph glyph-name="uniE647" unicode="&#xe647;" 
d="M470 -81q-44 0 -59.5 20.5t-15.5 65.5q0 21 -0.5 65t-1 93.5t-1.5 96.5t-1 75q0 40 -7.5 62.5t-35.5 21.5q-20 0 -48.5 1t-49.5 0q-36 0 -45.5 19.5t13.5 49.5q25 31 57.5 73t67.5 86t68 87t59 76q24 30 46 31t46 -27q25 -30 57 -69.5t67 -82t68.5 -84t60.5 -73.5
q30 -36 23 -59t-43 -23q-12 0 -25.5 -0.5t-29 -1t-30.5 -1t-27 -0.5q-26 -1 -32.5 -16.5t-5.5 -42.5q0 -29 0.5 -77t1 -100.5t1.5 -101.5t1 -80q0 -13 -2 -27.5t-9.5 -26t-21.5 -20t-36 -8.5q-28 0 -53 -0.5t-57 -1.5z" />
    <glyph glyph-name="uniE648" unicode="&#xe648;" 
d="M47 442q0 43 21 58t66 15q21 0 65 -0.5t93.5 -0.5t96.5 -0.5t75 -0.5q39 -1 61.5 6.5t22.5 35.5q0 20 1.5 48.5t1.5 48.5q1 36 20.5 46t49.5 -15t71 -58.5t85 -69t86 -69.5t75 -60q30 -25 30.5 -47t-28.5 -45q-30 -25 -70.5 -56.5t-84 -65.5t-85.5 -67t-74 -59
q-36 -29 -59 -21.5t-22 44.5v24v30q0 15 -0.5 30t-0.5 27q0 26 -15.5 32.5t-42.5 6.5q-29 0 -77.5 0.5t-100.5 0.5t-101 0.5t-80 0.5q-13 0 -27.5 2.5t-26.5 10t-19 21t-7 37.5q0 27 -0.5 53t0.5 57z" />
    <glyph glyph-name="uniE649" unicode="&#xe649;" 
d="M935 380q23 -27 19 -50t-26 -46l-325 -328q-8 -7 -19.5 -11t-23 -4.5t-23 2.5t-18.5 10q-122 123 -218 220l-81 81q-40 40 -71 71.5t-51 51t-21 21.5q-3 4 -11 15t-7 25v20v41q0 23 0.5 52.5t0.5 58.5q1 71 2 157q3 13 7 24t15 22q10 11 22 16.5t22 5.5h330q2 0 9 -0.5
t10 -1.5q6 -3 11.5 -6t10.5 -8zM217 579q41 0 69 28.5t28 69.5t-28 69.5t-69 28.5q-20 0 -37.5 -7.5t-31 -21t-21 -31.5t-7.5 -38.5t7.5 -38t21 -31t31 -21t37.5 -7.5z" />
    <glyph glyph-name="uniE64A" unicode="&#xe64a;" 
d="M1024 147q0 -25 -8.5 -47.5t-24 -41t-36.5 -30.5t-46 -16v-2h-21h-1h-665q-2 0 -2.5 -0.5t-2.5 -0.5t-3 0.5t-3 0.5h-6v1q-43 2 -80.5 19.5t-65 46.5t-43.5 67.5t-16 81.5t16 81t43 66.5t63.5 47t78.5 21.5q7 67 36.5 125t76 101t107 67.5t129.5 24.5q73 0 137.5 -27.5
t112 -76t75 -112.5t27.5 -136q0 -33 -6 -64.5t-17 -59.5q2 0 4.5 0.5t4.5 0.5q28 0 53 -11t43 -29.5t29 -43.5t11 -54zM687 299q12 20 7 23.5t-25 3.5q-13 0 -35 0.5t-33 0.5q-16 0 -21 13t-5 37q0 33 -0.5 53t-0.5 43q0 27 -3.5 39t-28.5 12q-19 0 -28 -0.5t-26 -0.5
q-27 0 -34 -15.5t-7 -31.5v-33q0 -13 1 -25t1 -26v-30q0 -16 -4.5 -24.5t-19.5 -8.5q-6 -1 -17 -1l-22 -2h-21h-17q-21 0 -25.5 -13.5t13.5 -33.5q17 -22 37 -47t39.5 -50.5t37.5 -49.5t33 -42q28 -31 54 1q15 18 35.5 45.5t42 57.5t41 58.5t31.5 46.5z" />
    <glyph glyph-name="uniE64B" unicode="&#xe64b;" 
d="M512 833q93 0 174.5 -35.5t142.5 -96t96.5 -142.5t35.5 -174q0 -93 -35.5 -174.5t-96.5 -142.5t-142.5 -96t-174.5 -35q-92 0 -174 35t-142.5 96t-95.5 142.5t-35 174.5q0 92 35 174t95.5 142.5t142.5 96t174 35.5zM675 610q-30 0 -51 -24.5t-21 -60.5q0 -35 21 -59.5
t51 -24.5t50 24.5t20 59.5q0 36 -20 60.5t-50 24.5zM343 608q-29 0 -49.5 -24.5t-20.5 -59.5q0 -36 20.5 -60.5t49.5 -24.5t49 24.5t20 60.5q0 35 -20 59.5t-49 24.5zM766 257q1 2 1 7t-1.5 11.5t-6 11.5t-13.5 8q-23 -29 -58 -51q-30 -20 -75.5 -35.5t-107 -15.5
t-104.5 15.5t-72 35.5q-34 22 -58 51q-8 -2 -12 -7t-6 -11.5t-2 -11.5t1 -8q1 -1 0.5 -1.5t0.5 -1.5q9 -28 32.5 -52t57.5 -42t76.5 -27.5t89.5 -9.5q93 0 160.5 33.5t92.5 89.5q0 2 1 4t3 7z" />
    <glyph glyph-name="uniE64C" unicode="&#xe64c;" 
d="M513 833q92 0 174 -35.5t142.5 -96t96 -142.5t35.5 -174q0 -93 -35.5 -174.5t-96 -142.5t-142.5 -96t-174 -35q-93 0 -174.5 35t-142.5 96t-96 142.5t-35 174.5q0 92 35 174t96 142.5t142.5 96t174.5 35.5zM274 524q0 -36 20 -60.5t49 -24.5t49.5 24.5t20.5 60.5
q0 35 -20.5 59.5t-49.5 24.5t-49 -24.5t-20 -59.5zM511 55q28 0 52 11t42 29t28.5 42.5t10.5 52t-10.5 51.5t-28.5 42t-42 29t-52 11t-52 -11t-42.5 -29t-28.5 -42t-10 -51.5t10 -52t28.5 -42.5t42.5 -29t52 -11zM675 441q30 0 50.5 24.5t20.5 59.5q0 36 -20.5 60.5
t-50.5 24.5t-50.5 -24.5t-20.5 -60.5q0 -35 20.5 -59.5t50.5 -24.5z" />
    <glyph glyph-name="uniE64D" unicode="&#xe64d;" 
d="M513 830q93 0 174.5 -35t142 -95.5t96 -142.5t35.5 -174q0 -93 -35.5 -174.5t-96 -142.5t-142 -96.5t-174.5 -35.5t-174.5 35.5t-142.5 96.5t-96 142.5t-35 174.5q0 92 35 174t96 142.5t142.5 95.5t174.5 35zM274 522q0 -36 20 -60.5t49 -24.5q30 0 50 24.5t20 60.5
q0 35 -20 59.5t-50 24.5q-29 0 -49 -24.5t-20 -59.5zM639 190h-256v-63h256v63zM675 439q30 0 50.5 24.5t20.5 59.5q0 36 -20.5 60.5t-50.5 24.5t-50.5 -24.5t-20.5 -60.5q0 -35 20.5 -59.5t50.5 -24.5z" />
    <glyph glyph-name="uniE64E" unicode="&#xe64e;" 
d="M513 834q92 0 174 -35.5t142.5 -96.5t96 -142.5t35.5 -174.5q0 -92 -35.5 -174t-96 -142.5t-142.5 -95.5t-174 -35q-93 0 -174.5 35t-142.5 95.5t-96 142.5t-35 174q0 93 35 174.5t96 142.5t142.5 96.5t174.5 35.5zM766 257q1 3 1 8t-1.5 11t-6 11t-13.5 8
q-23 -29 -58 -51q-30 -20 -75.5 -35.5t-106.5 -15.5t-104.5 15.5t-72.5 35.5q-34 22 -58 51q-15 -3 -18 -17.5t-1 -20.5q1 -1 1 -2q9 -28 32.5 -52t57.5 -42t76.5 -27.5t89.5 -9.5q93 0 160.5 33.5t92.5 89.5q0 1 1 3t3 7zM660.5 386q31.5 0 70 19t73.5 42q40 27 81 63
l-18 70h-681l-26 -74q36 -32 70 -57q30 -22 64 -39.5t60.5 -17.5t45 10t35 21t34 21t42.5 10t39.5 -11t28.5 -23t32 -23t49.5 -11z" />
    <glyph glyph-name="uniE64F" unicode="&#xe64f;" 
d="M967 822q25 -58 33 -110q4 -23 4 -46.5t-6 -45t-19 -40.5t-36 -31q-2 -2 -5 -2.5t-5 -2.5q14 -37 21.5 -77t7.5 -82q0 -93 -35.5 -174.5t-96 -142.5t-142.5 -96t-174 -35q-93 0 -174.5 35t-142.5 96t-96 142.5t-35 174.5q0 82 28 157l-7 4l-7 3q-24 12 -36.5 31t-19 40.5
t-6 45t4.5 46.5q8 52 33 110q12 -35 26 -68q12 -29 29.5 -58.5t38.5 -49.5q61 86 155.5 136.5t208.5 50.5q55 0 107.5 -13.5t98.5 -37.5t85.5 -58t70.5 -76q20 21 36.5 50t28.5 57q14 32 26 67zM249 622q13 -43 29 -79q13 -31 29.5 -60t33.5 -38t36.5 -1t36.5 21
q18 15 38 39zM767 257q1 2 1 7t-1.5 11.5t-6 11.5t-12.5 8q-24 -29 -59 -51q-30 -20 -75.5 -35.5t-106.5 -15.5t-104.5 15.5t-72.5 35.5q-34 22 -58 51q-8 -2 -12 -7t-6 -11.5t-2 -11.5t1 -8q1 -1 1 -3q9 -28 32.5 -52t57.5 -42t76.5 -27.5t89.5 -9.5q93 0 160.5 33.5
t92.5 89.5q0 2 1 4t3 7zM682 445q17 9 33.5 38t29.5 60q16 36 29 79l-203 -118q20 -24 38 -39q17 -13 36.5 -21t36.5 1z" />
    <glyph glyph-name="uniE650" unicode="&#xe650;" 
d="M512 833q93 0 174.5 -35.5t142.5 -96t96.5 -142.5t35.5 -174q0 -93 -35.5 -174.5t-96.5 -142.5t-142.5 -96t-174.5 -35q-92 0 -174 35t-142.5 96t-95.5 142.5t-35 174.5q0 92 35 174t95.5 142.5t142.5 96t174 35.5zM446 578h-192v-65h192v65zM639 450h-65v-128h65v128z
M767 450h-65v-128h65v128zM767 578h-193v-65h193v65zM895 322v256h-65v-256h65z" />
    <glyph glyph-name="uniE651" unicode="&#xe651;" 
d="M512 833q92 0 174 -35.5t142.5 -96.5t95.5 -142.5t35 -174.5q0 -92 -35 -174t-95.5 -142.5t-142.5 -95.5t-174 -35q-93 0 -174.5 35t-142.5 95.5t-96.5 142.5t-35.5 174q0 93 35.5 174.5t96.5 142.5t142.5 96.5t174.5 35.5zM253 513h192v65h-192v-65zM558 206
q-11 6 -33 12.5t-42 16t-31.5 22.5t0.5 34q14 26 33.5 32t37.5 2q22 -4 44 -19l29 59q-39 20 -77 25q-33 4 -68 -6.5t-62 -52.5q-10 -17 -12.5 -31t0.5 -26.5t9.5 -23t14.5 -20.5q20 -20 53 -35q-22 2 -39 -6q-15 -6 -27.5 -23.5t-13.5 -52.5q-1 -27 7 -46.5t21.5 -33.5
t31 -22.5t35.5 -12.5q43 -11 98 -6v60q-36 1 -62 5q-24 4 -42 12.5t-16 24.5q4 22 15 31t26 11t32 0.5t32 -2.5t22 8.5t7 21.5t-6.5 24t-16.5 18zM766 578h-193v-65h193v65z" />
    <glyph glyph-name="uniE652" unicode="&#xe652;" 
d="M968 821q25 -58 33 -110q4 -23 4 -46t-6 -44.5t-19 -40.5t-36 -31q-2 -2 -5 -3t-5 -3q14 -37 21.5 -76.5t7.5 -82.5q0 -92 -35.5 -174t-96.5 -142.5t-142.5 -95.5t-174.5 -35q-92 0 -174 35t-142.5 95.5t-95.5 142.5t-35 174q0 42 7 81.5t21 76.5q-7 3 -14 7
q-24 12 -36.5 31t-19 40.5t-6 44.5t4.5 46q8 52 33 110q12 -36 26 -68q12 -29 29.5 -58t38.5 -49q61 85 155.5 136t207.5 51t207 -50.5t156 -134.5q20 20 36.5 49.5t28.5 57.5q14 32 26 66zM250 622q13 -44 29 -80q13 -31 29.5 -59.5t33.5 -38t36.5 -1t36.5 21.5
q18 15 38 38zM752 84q8 3 12.5 8t6 11.5t1.5 11.5t-1 8q-2 5 -3 7t-1 4q-25 56 -93 91t-162 35q-47 0 -89.5 -10t-76.5 -28t-58 -43t-33 -54q0 -1 -1 -2q-2 -6 1 -21t18 -18q24 29 58 52q29 21 73.5 37t105.5 16t107 -16t75 -37q35 -23 60 -52zM683 444.5q17 9.5 33.5 38
t29.5 59.5q16 36 29 80l-203 -119q20 -23 38 -38q17 -13 36.5 -21.5t36.5 1z" />
    <glyph glyph-name="uniE653" unicode="&#xe653;" 
d="M512 833q93 0 174.5 -35.5t142.5 -96t96.5 -142.5t35.5 -174q0 -93 -35.5 -174.5t-96.5 -142.5t-142.5 -96t-174.5 -35q-92 0 -174 35t-142.5 96t-95.5 142.5t-35 174.5q0 92 35 174t95.5 142.5t142.5 96t174 35.5zM671 643q-35 0 -59 -28.5t-24 -69.5q0 -42 24 -71
t59 -29t59 29t24 71q0 41 -24 69.5t-59 28.5zM254 450h192v63h-192v-63zM766 257q1 2 1 7t-1.5 11.5t-6 11.5t-13.5 8q-23 -29 -58 -51q-30 -20 -75.5 -35.5t-107 -15.5t-104.5 15.5t-72 35.5q-34 22 -58 51q-8 -2 -12 -7t-6 -11.5t-2 -11.5t1 -8q1 -1 0.5 -1.5t0.5 -1.5
q9 -28 32.5 -52t57.5 -42t76.5 -27.5t89.5 -9.5q93 0 160.5 33.5t92.5 89.5q0 2 1 4t3 7z" />
    <glyph glyph-name="uniE654" unicode="&#xe654;" 
d="M512 833q93 0 174.5 -35.5t142.5 -96t96.5 -142.5t35.5 -174q0 -93 -35.5 -174.5t-96.5 -142.5t-142.5 -96t-174.5 -35q-92 0 -174 35t-142.5 96t-95.5 142.5t-35 174.5q0 92 35 174t95.5 142.5t142.5 96t174 35.5zM248 622q13 -43 28 -79q14 -31 30.5 -60t33.5 -38
t36.5 -1t36.5 21q18 15 38 39zM750 84q8 3 12.5 8t6 11.5t1.5 12t-1 7.5q-2 8 -5 11q-12 29 -35.5 52t-56.5 40t-74 26t-88 9t-89.5 -10t-76.5 -28.5t-58 -43t-33 -53.5q-1 -1 -1 -3q-2 -6 1 -20.5t18 -18.5q24 30 58 53q29 21 73 37t105.5 16t107 -16t75.5 -37
q35 -23 60 -53zM681 445q17 9 33.5 38t29.5 60q16 36 29 79l-203 -118q20 -24 38 -39q17 -13 36.5 -21t36.5 1z" />
    <glyph glyph-name="uniE655" unicode="&#xe655;" 
d="M512 833q93 0 174.5 -35.5t142.5 -96t96.5 -142.5t35.5 -174q0 -93 -35.5 -174.5t-96.5 -142.5t-142.5 -96t-174.5 -35q-92 0 -174 35t-142.5 96t-95.5 142.5t-35 174.5q0 92 35 174t95.5 142.5t142.5 96t174 35.5zM340 445q17 -9 36.5 -1t36.5 21q18 15 38 39l-203 118
q13 -43 28 -79q14 -31 30.5 -60t33.5 -38zM510 55q28 0 52 11t42.5 29t28.5 42.5t10 52t-10 51.5t-28.5 42t-42.5 29t-52 11t-52 -11t-42 -29t-28.5 -42t-10.5 -51.5t10.5 -52t28.5 -42.5t42 -29t52 -11zM681 445q17 9 33.5 38t29.5 60q16 36 29 79l-203 -118q20 -24 38 -39
q17 -13 36.5 -21t36.5 1z" />
    <glyph glyph-name="uniE656" unicode="&#xe656;" 
d="M511 834q93 0 174.5 -35.5t142.5 -96t96 -142.5t35 -174q0 -93 -35 -174.5t-96 -142.5t-142.5 -96t-174.5 -35q-92 0 -174 35t-142.5 96t-96 142.5t-35.5 174.5q0 92 35.5 174t96 142.5t142.5 96t174 35.5zM253 514h68q3 -29 10.5 -47t17.5 -18t18 18t11 47h67v65h-192
v-65zM701 194h-384v-64h384v64zM766 579h-193v-65h68q3 -29 10.5 -47t18 -18t18 18t10.5 47h68v65z" />
    <glyph glyph-name="uniE657" unicode="&#xe657;" 
d="M508 177q0 -2 -2 -10q0 7 1 10q0 2 1 4v-4zM971 793q-3 -29 -15 -59q-9 -25 -27.5 -55.5t-49.5 -57.5q39 -56 61 -121.5t22 -138.5q0 -93 -35.5 -174.5t-96 -142t-142.5 -96t-174 -35.5q-93 0 -174.5 35.5t-142.5 96t-96 142t-35 174.5q0 72 21 137t59 120
q-32 28 -51 58.5t-28 56.5q-12 30 -15 60q54 16 104 20q20 1 42 0t42 -7t37.5 -17.5t29.5 -29.5q94 50 207 50q53 0 103 -12t95 -34q10 15 27 25t37 15t42.5 6t43.5 0q50 -3 109 -16zM255 489h192v65h-192v-65zM605 105q45 0 66 13t28.5 31.5t5.5 38.5t-2 35.5t-9 21
t-19.5 5t-19.5 -7t-9 -17.5q0 -20 -7 -38t-25 -18q-7 0 -17 7.5t-20.5 20.5t-19 29.5t-12.5 33.5q15 7 25 19.5t10 28.5q0 23 -19.5 38.5t-47.5 15.5q-29 0 -48.5 -15.5t-19.5 -38.5q0 -14 8 -25.5t20 -19.5q0 -18 -2.5 -35t-8.5 -29.5t-17 -20t-29 -7.5q-21 0 -29 3
t-10 9.5t0 16t2 21.5t-10.5 18.5t-22.5 6.5t-22.5 -8t-10.5 -23q0 -32 11 -56q8 -21 28 -38.5t58 -17.5q26 0 44 7t29 16.5t16 21t7 19.5q0 -8 3 -19t14 -20t30 -16t52 -7zM768 554h-193v-65h193v65z" />
    <glyph glyph-name="uniE658" unicode="&#xe658;" 
d="M511 831q93 0 174.5 -35t142.5 -95.5t96 -142.5t35 -174q0 -93 -35 -174.5t-96 -142.5t-142.5 -96.5t-174.5 -35.5q-92 0 -174 35.5t-142.5 96.5t-96 142.5t-35.5 174.5q0 92 35.5 174t96 142.5t142.5 95.5t174 35zM349 445q42 0 71.5 29t29.5 71t-29.5 70.5t-71.5 28.5
q-20 0 -38 -7.5t-32 -21t-21.5 -32t-7.5 -39t7.5 -39t21.5 -31.5t32 -21t38 -8zM670 445q42 0 71 29t29 71t-29 70.5t-71 28.5q-21 0 -39 -7.5t-31.5 -21t-21.5 -32t-8 -39t8 -39t21.5 -31.5t31.5 -21t39 -8zM350 591q20 0 33 -13.5t13 -33t-13 -33t-33 -13.5t-33.5 13.5
t-13.5 33t13.5 33t33.5 13.5zM671 596q20 0 35.5 -15t15.5 -36.5t-15.5 -36t-35.5 -14.5q-22 0 -37.5 14.5t-15.5 36t15.5 36.5t37.5 15z" />
    <glyph glyph-name="uniE659" unicode="&#xe659;" 
d="M511 831q93 0 174.5 -35t142.5 -95.5t96 -142.5t35 -174q0 -93 -35 -174.5t-96 -142.5t-142.5 -96.5t-174.5 -35.5q-92 0 -174 35.5t-142.5 96.5t-96 142.5t-35.5 174.5q0 92 35.5 174t96 142.5t142.5 95.5t174 35zM394 545l91 90l-46 46l-90 -91l-91 91l-45 -46l91 -90
l-91 -91l45 -45l91 90l90 -90l46 45zM715 545l91 90l-46 46l-90 -91l-91 91l-45 -46l91 -90l-91 -91l45 -45l91 90l90 -90l46 45z" />
    <glyph glyph-name="uniE65A" unicode="&#xe65a;" 
d="M833 833q26 0 49.5 -10.5t41 -28t28 -40.5t10.5 -49v-642q0 -26 -10.5 -49t-28 -40.5t-41 -28t-49.5 -10.5h-192v384h64q26 0 45 19t19 46t-19 46t-45 19h-64q2 38 16.5 51.5t38.5 13.5h67q28 0 42 20t14 44t-13.5 44t-42.5 20h-111q-35 0 -61 -12t-44 -32t-26.5 -47
t-8.5 -57v-45h-63q-27 0 -46 -19t-19 -46t19 -46t46 -19h63v-384h-321q-26 0 -49 10.5t-40.5 28t-28 40.5t-10.5 49v642q0 26 10.5 49t28 40.5t40.5 28t49 10.5h642z" />
    <glyph glyph-name="uniE65B" unicode="&#xe65b;" horiz-adv-x="1029" 
d="M1001 401q22 -20 23 -44.5t-16 -41.5q-20 -17 -45.5 -16t-40.5 14q-6 4 -32 29t-62 59t-77.5 73.5t-78.5 74.5t-63.5 60.5t-34.5 31.5q-32 30 -64 29t-63 -29q-10 -9 -38 -35t-65 -61t-78 -73t-75.5 -70.5t-60 -55.5t-30.5 -28q-15 -12 -40.5 -13t-44.5 16q-20 18 -19 44
t17 42q6 6 38 35.5t76 70.5t94.5 88t94 88t75 70t36.5 35q39 37 84 38t77 -30q6 -5 25.5 -24t47.5 -46t63 -61t70.5 -68.5t70 -68t63 -61t48.5 -46.5zM447 550q26 23 62 25t64 -25q3 -3 19 -18l39 -35q22 -22 50.5 -48.5t57.5 -53.5q69 -63 154 -142v-195q0 -22 -17 -39.5
t-46 -18.5h-193v159q0 34 -32 34h-195q-18 0 -24.5 -10.5t-6.5 -23.5q0 -6 -0.5 -31.5t-0.5 -53.5v-74h-188q-29 0 -46.5 13.5t-17.5 37.5v204q84 77 152 139q29 27 57.5 53t52.5 47.5t39.5 36.5t19.5 19z" />
    <glyph glyph-name="uniE65C" unicode="&#xe65c;" 
d="M930 68q28 -33 31 -57.5t-19 -48.5q-24 -28 -54 -26t-58 24l-172 166q-46 -30 -98.5 -46.5t-110.5 -16.5q-80 0 -150 30.5t-122 82.5t-82 122t-30 149.5t30 149.5t82 122t122 82t149.5 30t149.5 -30t122 -82t82.5 -122t30.5 -150q0 -60 -17.5 -114t-49.5 -101l34 -33
q24 -25 51.5 -51.5t50 -50t28.5 -29.5zM452.5 191q53.5 0 100.5 20t82 55t55 82t20 100.5t-20 100.5t-55 82t-82 55t-100.5 20t-100.5 -20t-81.5 -55t-54.5 -82t-20 -100.5t20 -100.5t54.5 -82t81.5 -55t100.5 -20z" />
    <glyph glyph-name="uniE65D" unicode="&#xe65d;" 
d="M542 896q29 0 58.5 -6.5t55 -18t45 -25.5t31.5 -29q26 -32 38.5 -71.5t17.5 -75.5q5 -41 5 -83q7 -5 11 -13q4 -7 6.5 -18.5t0.5 -27.5q-2 -21 -8.5 -34t-14.5 -20q-9 -8 -19 -11l-11 -33q-5 -13 -11.5 -26t-14.5 -20q-20 -15 -32 -26t-16 -36q-3 -16 -2 -31.5t8.5 -31.5
t23.5 -30.5t44 -25.5q26 -10 56 -18t58.5 -19t50.5 -27t32 -43q5 -17 7.5 -41t2.5 -48.5t-3.5 -46t-11.5 -32.5q-5 -7 -29 -14t-59 -14t-78.5 -12t-87.5 -8.5t-84.5 -5.5t-70 -2t-69 2t-81 5.5t-83 8t-75.5 10t-57.5 10.5t-29.5 10q-10 8 -15.5 50t4.5 108q5 38 30 58
t58.5 32t69 21t63.5 26q21 14 32.5 26t16.5 24.5t5 25.5t-1 30q-2 23 -16.5 37t-31.5 28q-8 7 -14.5 20t-11.5 26q-5 15 -10 33q-7 2 -14 7q-6 5 -13.5 14t-12.5 27q-6 17 -4.5 31.5t5.5 24.5q4 11 13 21q-1 39 5 78q4 33 14.5 70.5t32.5 67.5q19 29 43 46.5t49 28t50 14
t49 3.5z" />
    <glyph glyph-name="uniE65E" unicode="&#xe65e;" 
d="M736 258q33 0 62 -13t50.5 -35t34.5 -51t13 -62.5t-13 -62.5t-34.5 -50.5t-50.5 -34.5t-62.5 -13t-62.5 13t-51 34.5t-35 50.5t-13 63q0 10 1 18.5t3 17.5l-161 136q-14 -7 -30.5 -10t-33.5 -3q-34 0 -63 12.5t-51 34t-35 50.5t-13 63t13 63t35 51t51 34.5t63 12.5
q38 0 72 -17l153 143q-4 13 -4 33q0 33 13 62.5t35 50.5t51 34t62.5 13t62.5 -13t50.5 -34t34.5 -50.5t13 -63t-13 -62.5t-34.5 -51t-50.5 -35t-62 -13q-24 0 -45 6.5t-38 17.5l-146 -136q6 -23 6 -46q0 -28 -9 -53l150 -127q18 11 38.5 16.5t43.5 5.5z" />
    <glyph glyph-name="uniE65F" unicode="&#xe65f;" 
d="M823 836q66 0 99.5 -38.5t33.5 -94.5v-543q0 -26 -21 -46l-171 -164q-13 -11 -22.5 -14.5t-23.5 -3.5h-460q-24 0 -47.5 10t-41.5 28t-30 43t-12 56v634q0 61 33.5 97t94.5 36h568zM608 194q14 0 23 9t9 22q0 15 -9 23.5t-23 8.5h-320q-14 0 -23 -8.5t-9 -23.5
q0 -13 9 -22t23 -9h320zM736 386q14 0 23 9t9 22.5t-9 23t-23 9.5h-448q-14 0 -23 -9.5t-9 -23t9 -22.5t23 -9h448zM800 578q13 0 22 9t9 23t-9 23t-22 9h-512q-14 0 -23 -9t-9 -23t9 -23t23 -9h512z" />
    <glyph glyph-name="uniE660" unicode="&#xe660;" 
d="M949 698q7 -8 8 -18.5t1 -16.5v-550q0 -48 -32.5 -81t-86.5 -33h-592q-56 0 -88 27.5t-32 84.5v599q0 55 32 88t88 33h543q10 0 20 -2.5t14 -6.5zM768 735q-2 32 -34 32h-446q-16 1 -25 -8t-9 -22v-167q0 -10 4.5 -20.5t13 -19.5t19 -14.5t22.5 -5.5h389q28 0 47 16.5
t19 48.5v160zM768 274q0 44 -45 45h-423q-24 0 -35 -12t-11 -33v-149h514v149z" />
    <glyph glyph-name="uniE661" unicode="&#xe661;" 
d="M508 836q93 1 175 -34t144 -95t98 -141.5t37 -174.5q1 -88 -30.5 -166t-87.5 -137.5t-131 -98.5t-162 -48q-23 -3 -48.5 -5.5t-56.5 -3.5t-69.5 0t-86.5 7q-107 10 -158.5 26.5t-41.5 18.5q54 9 93 29q21 12 17.5 33t-20.5 39q-52 57 -84.5 133.5t-34.5 164.5
q-1 93 34 175t95.5 143.5t142.5 97.5t175 37zM708 385q0 -27 18 -45.5t45 -18.5t46 18.5t19 45.5t-19 45.5t-46 18.5t-45 -18.5t-18 -45.5zM451 385q0 -27 19 -46.5t46 -19.5q28 0 47 19.5t19 46.5q0 28 -19 47t-47 19q-27 0 -46 -19t-19 -47zM197 386q0 -27 18.5 -46
t45.5 -19q28 0 47 19t19 46t-19 46t-47 19q-27 0 -45.5 -19t-18.5 -46z" />
    <glyph glyph-name="uniE662" unicode="&#xe662;" 
d="M512 831q92 0 174 -35t142.5 -95.5t95.5 -142.5t35 -174q0 -93 -35 -174.5t-95.5 -142.5t-142.5 -95.5t-174 -34.5q-93 0 -174.5 34.5t-142.5 95.5t-96.5 142.5t-35.5 174.5q0 92 35.5 174t96.5 142.5t142.5 95.5t174.5 35zM673.5 609q-29.5 0 -50 -24.5t-20.5 -59.5
q0 -36 20.5 -60.5t50 -24.5t50 24.5t20.5 60.5q0 35 -20.5 59.5t-50 24.5zM342 607q-29 0 -49 -24.5t-20 -59.5q0 -36 20 -60t49 -24t49.5 24t20.5 60q0 35 -20.5 59.5t-49.5 24.5zM516 51q54 0 103 19.5t87.5 53.5t66 79t38.5 96v5q0 8 -6 15t-15 7h-548q-10 0 -17.5 -7
t-5.5 -15q2 -10 3 -14t2 -6q14 -50 41.5 -92t65 -73.5t84.5 -49.5t101 -18z" />
    <glyph glyph-name="uniE663" unicode="&#xe663;" 
d="M895 322q0 -79 -29.5 -149t-81.5 -123.5t-122 -88t-151 -41.5q-5 -1 -9 -1.5t-9 -0.5h-178q-17 0 -34 6t-30 17t-22 25.5t-9 29.5t8.5 29.5t21.5 24.5t29.5 16.5t33.5 6.5l159 -1q54 0 102.5 20t84 53.5t56 79t20.5 98.5q0 49 -18.5 92t-50.5 76.5t-75 54.5t-93 26
q-2 0 -2.5 -0.5t-2.5 -0.5h-163v-81q0 -17 -14 -25t-45 10q-8 5 -26 18t-42 30.5t-50 36.5l-52 39q-15 12 -26.5 22t-11.5 24q0 12 13 25.5t29 26.5q19 16 44.5 36.5t50.5 40t45 35t28 21.5q25 18 40.5 7.5t16.5 -30.5v-82h163q5 0 10.5 -1t10.5 -2q80 -8 149.5 -42
t121.5 -87.5t81 -123.5t29 -147z" />
    <glyph glyph-name="uniE664" unicode="&#xe664;" 
d="M109 324q0 77 29 147t80.5 123.5t121.5 87.5t149 42q11 3 22 3h163v82q1 20 16.5 30.5t39.5 -6.5q7 -6 27.5 -21.5t45.5 -35.5t51 -40.5t44 -36.5q16 -13 28.5 -26.5t12.5 -25.5q0 -14 -10.5 -24t-26.5 -22l-51 -39q-27 -19 -51 -36.5t-42.5 -30.5t-26.5 -17
q-15 -9 -26 -11.5t-17.5 0.5t-10 10t-3.5 16v81h-163h-5q-50 -5 -93 -26t-75.5 -54.5t-51 -76.5t-18.5 -92q0 -53 20.5 -98.5t56.5 -79t84 -53.5t102 -20l159 1q17 0 33.5 -6.5t29.5 -16.5t21 -24t8 -30q0 -15 -8 -29.5t-22 -25t-30.5 -16.5t-33.5 -6h-177h-9q-4 0 -9 1
q-81 7 -151.5 41.5t-122 88t-81 123.5t-29.5 149z" />
    <glyph glyph-name="uniE665" unicode="&#xe665;" 
d="M926 431q0 -16 -7 -31t-17.5 -26.5t-26 -18t-31.5 -6.5h-30q34 0 58 -22.5t24 -55t-24 -56.5t-58 -24h-31q35 0 59 -23.5t24 -55.5q0 -17 -9 -31.5t-25 -25.5t-36.5 -17t-41.5 -6q33 0 54 -24t21 -57q0 -21 -11.5 -35.5t-29.5 -24.5t-38.5 -14.5t-36.5 -4.5h-183h-246
q-33 0 -61 11t-49 30.5t-33 47.5t-12 63v313q0 20 1.5 40.5t7.5 38.5t19 33t34 24q21 8 47 24.5t54.5 39t55 50.5t48 59.5t34 65t12.5 68.5q1 31 8.5 51.5t19 33.5t25.5 18.5t28 5.5q37 0 62 -22.5t36 -73.5q2 -44 -6 -94q-6 -42 -21 -92t-47 -99h297q34 0 58 -22t24 -55z
" />
    <glyph glyph-name="uniE666" unicode="&#xe666;" 
d="M908 302q0 -31 -22.5 -51t-54.5 -20h-279q30 -47 45 -94.5t20 -86.5q6 -46 5 -87q-10 -48 -33.5 -69.5t-58.5 -21.5q-13 0 -26.5 5.5t-24 17.5t-17.5 31.5t-8 48.5q0 32 -12.5 64t-32.5 61t-45 55.5t-51 47.5t-51 36.5t-44 22.5q-21 9 -32.5 23t-17.5 31.5t-7.5 36.5
t-1.5 38v295q0 33 11.5 58.5t31 44.5t46 29t57.5 10h232h170q16 0 35.5 -4.5t36 -13.5t28 -23.5t11.5 -32.5q0 -32 -20 -54t-52 -22q21 0 40 -6t34 -16t23.5 -23.5t8.5 -29.5q0 -32 -22.5 -54t-54.5 -22h28q32 0 55 -21t23 -53t-23 -52.5t-55 -20.5h28q16 0 30.5 -6.5
t24.5 -17t16 -24.5t6 -30z" />
    <glyph glyph-name="uniE667" unicode="&#xe667;" 
d="M861 703q31 0 51 -10t31.5 -25.5t16.5 -33.5t5 -33q0 -7 -0.5 -11t-0.5 -7v-6h-68v-538q0 -21 -8 -39.5t-23.5 -33t-37.5 -23.5t-51 -9h-457q-26 0 -49.5 8.5t-40.5 23.5t-26.5 36t-9.5 47v528h-64q-1 1 -1 5q-1 5 -1 31q0 14 6 30t18.5 30t32 23.5t45.5 9.5h92v62
q0 27 18 46t45 19h321q35 0 49 -19t14 -46v-63q22 -2 46 -2h47zM384 703h321v65h-321v-65zM352 55q33 0 33 42v475h-63v-475q0 -21 6.5 -31.5t23.5 -10.5zM546 56q17 0 23 10t6 31v475h-63v-475q0 -41 34 -41zM738 58q19 0 25 10t6 31v473h-64v-473q0 -41 33 -41z" />
    <glyph glyph-name="uniE668" unicode="&#xe668;" 
d="M830 620q68 -56 103 -126.5t33 -152.5q-2 -85 -34 -156.5t-88.5 -125.5t-134.5 -86t-173.5 -38.5t-179 18t-147.5 74t-102 119.5t-42 155q-4 63 14 116t48.5 97.5t66.5 80t70 60.5q59 44 36 117q-4 13 -9.5 24.5t-11 20t-8 15.5t0.5 10q3 4 18 -1t34 -14.5t39.5 -20
t34.5 -20.5q19 -11 35 -18.5t33 -12.5t38 -10.5t50 -12.5q36 -9 73 -19t72 -23t68.5 -30t62.5 -40zM592 246q12 1 23 12.5t17.5 30t8.5 43t-2 52.5q-10 65 -34.5 98.5t-51.5 30.5q-21 -3 -32.5 -28.5t-10.5 -67.5q27 -6 48 -10q19 -5 34.5 -8t17.5 -3q8 -2 2 -6l-14 -14
q-13 -14 -28 -29l-39 -41q12 -30 27.5 -46t33.5 -14zM849 293q20 5 35 38t9 94q-3 26 -9 49t-15.5 39.5t-20.5 26t-23 7.5q-21 -4 -31.5 -34t-10.5 -67q24 -4 42 -8q17 -3 30 -5t15 -2q7 -2 2 -6l-13 -13q-11 -11 -25 -23q-17 -14 -36 -33q9 -30 22 -48.5t29 -14.5z" />
    <glyph glyph-name="uniE669" unicode="&#xe669;" 
d="M151 465q37 0 57.5 -24t20.5 -52v-11q0 -35 -17.5 -59t-59.5 -24h-8q-39 0 -62 21.5t-23 59.5v14q0 13 6 26.5t16 24.5t25.5 17.5t33.5 6.5h11zM519 465q38 0 58.5 -24t20.5 -52v-11q0 -35 -18 -59t-60 -24h-7q-39 0 -62 21.5t-23 59.5v14q0 13 5.5 26.5t16 24.5
t25.5 17.5t34 6.5h10zM888 465q38 0 58.5 -24t20.5 -52v-11q0 -35 -18 -59t-60 -24h-7q-39 0 -62 21.5t-23 59.5v14q0 13 5.5 26.5t15.5 24.5t25.5 17.5t34.5 6.5h10z" />
    <glyph glyph-name="uniE66A" unicode="&#xe66a;" 
d="M512 842q95 0 178.5 -36.5t145.5 -98.5t98.5 -146t36.5 -179t-36.5 -178.5t-98.5 -145.5t-145.5 -98.5t-178.5 -36.5t-179 36.5t-146 98.5t-98.5 145.5t-36.5 178.5t36.5 179t98.5 146t146 98.5t179 36.5zM567 445q0 25 -15.5 42t-39.5 17t-40 -17t-16 -42v-343
q0 -24 16 -39t40 -15t40 15.5t16 39.5zM512 572q30 0 51 21t21 51t-21 51t-51 21t-51.5 -21t-21.5 -51t21.5 -51t51.5 -21z" />
    <glyph glyph-name="uniE66B" unicode="&#xe66b;" 
d="M514 842q95 0 178.5 -36.5t146 -98.5t98.5 -145.5t36 -178.5t-36 -178t-98.5 -145.5t-146 -98.5t-178.5 -36t-178 36t-145.5 98.5t-98.5 145.5t-36 178t36 178.5t98.5 145.5t145.5 98.5t178 36.5zM515 70q27 0 45 17.5t18 43.5q0 27 -18 45t-45 18t-44.5 -18t-17.5 -45
q0 -26 17.5 -43.5t44.5 -17.5zM567 322q-1 16 20.5 34.5t48.5 41t49.5 50.5t24.5 65q2 40 -8.5 75t-34 60t-61 39.5t-87.5 14.5q-62 0 -103.5 -22t-67 -53t-36 -64.5t-9.5 -55.5q1 -27 17 -39t34.5 -12.5t33.5 10t15 31.5q0 12 8 30t21 34.5t32 27.5t43 11q46 0 73.5 -23
t25.5 -58q0 -17 -10 -32t-26 -29t-34 -27.5t-34 -28.5t-26.5 -32.5t-11.5 -37.5l1 -39q0 -15 14.5 -29t37.5 -15q24 1 37.5 15.5t12.5 32.5v25z" />
    <glyph glyph-name="uniE66C" unicode="&#xe66c;" 
d="M781 280q18 -81 31 -146q6 -27 11 -54.5t9.5 -50t7.5 -38.5t4 -20q3 -20 -9 -27t-27 -7q-5 0 -15 3.5t-15 5.5l-266 155q-72 -42 -132 -76q-25 -14 -50 -28.5t-45.5 -26.5t-35 -20.5t-20.5 -10.5q-10 -5 -20.5 -3.5t-19.5 8t-13 15t-2 17.5q1 4 5.5 20t9.5 38t11.5 48.5
t13.5 53.5q15 63 35 143q-60 52 -108 93q-21 17 -40.5 34t-35.5 30.5t-26.5 22.5t-11.5 10q-12 11 -20.5 24.5t-6.5 28t11 22.5t21 10l315 29l117 273q6 17 17.5 28.5t30.5 11.5q10 0 17.5 -4.5t13 -10.5t9 -12.5t5.5 -10.5l114 -273l315 -30q21 -5 29 -12t8 -22t-8.5 -25.5
t-22.5 -25.5z" />
    <glyph glyph-name="uniE66D" unicode="&#xe66d;" 
d="M534 628q33 42 71 75q33 28 74.5 50.5t86.5 19.5q63 -5 105.5 -30t68 -63.5t34.5 -87t6 -100t-18 -98t-37 -87t-48.5 -74.5t-53.5 -62q-41 -42 -85.5 -78.5t-85 -62.5t-73.5 -41.5t-52 -15.5q-20 -1 -52 14.5t-69.5 41.5t-79.5 62t-83 76q-27 26 -57.5 59.5t-58 74
t-47 87.5t-21.5 100.5t11.5 100t40 83.5t65.5 62t88 35q25 5 49.5 1.5t48 -12t45 -22t40.5 -27.5q46 -34 87 -81z" />
    <glyph glyph-name="uniE66E" unicode="&#xe66e;" 
d="M765 449h-509v163q0 58 20 109t54.5 89.5t81 60.5t99.5 22t99.5 -22t81 -60.5t54 -89.5t19.5 -109v-163zM511 63q-52 0 -98.5 15.5t-81 44t-55 68.5t-20.5 91v70v31h509v-101q0 -41 -20 -80t-55 -70t-81 -50t-98 -19zM966 384q29 0 42.5 -7t13.5 -25q0 -22 -14 -28
t-35 -6h-18q-5 -49 -17 -98q-11 -43 -30 -91.5t-49 -91.5q-57 -79 -148 -121.5t-201 -42.5q-109 0 -195.5 34.5t-153.5 116.5q-34 41 -53.5 92t-29.5 96q-11 52 -16 105h-12q-34 1 -41.5 9.5t-7.5 28.5q0 19 16.5 24t41.5 5q26 1 46.5 0.5t32.5 0.5q22 0 33 -3t15.5 -9
t4.5 -18v-25q0 -9 -3.5 -28.5t-1.5 -48t12.5 -65.5t38.5 -82q26 -44 64 -67t77 -32.5t74 -10t58 -0.5q36 1 70 2.5t65.5 9.5t60 25t54.5 50q27 35 41 68.5t19.5 63.5t6 56t1.5 47q1 28 3.5 42t8.5 19t17 5h30h79z" />
    <glyph glyph-name="uniE66F" unicode="&#xe66f;" 
d="M347 113q20 0 37 -7.5t30.5 -20t20.5 -30t7 -37t-7 -37t-20.5 -30t-30.5 -20.5t-37 -8t-37 8t-30.5 20.5t-20.5 30t-7 37t7 37t20.5 30t30.5 20t37 7.5zM773.5 111q19.5 0 37 -7.5t30.5 -20t20.5 -30t7.5 -37t-7.5 -37t-20.5 -30t-30.5 -20.5t-37 -8t-37 8t-30.5 20.5
t-20.5 30t-7.5 37t7.5 37t20.5 30t30.5 20t37 7.5zM945 692q29 0 45 -7.5t22.5 -19t6 -24t-3.5 -22t-13 -38t-22 -63t-24 -68t-18 -53.5q-13 -41 -33.5 -56.5t-50.5 -15.5h-35h-66h-87h-96h-254l16 -93h516q49 0 49 -42q0 -20 -9.5 -35t-38.5 -15h-49h-95h-118h-120h-98h-57
q-20 0 -34 9.5t-23 24t-15 32t-9 33.5q-1 6 -5.5 29.5t-11 58.5t-15 79t-16.5 88q-19 103 -44 230h-77q-15 0 -25 7.5t-17 18.5t-9.5 23t-2.5 23q0 20 14 33.5t37 13.5h23h20h26h35q20 0 32.5 -6.5t19.5 -15.5t10 -19t5 -18t4.5 -23t4.5 -30q3 -18 6 -39h700z" />
    <glyph glyph-name="uniE670" unicode="&#xe670;" horiz-adv-x="1029" 
d="M-2 181q0 50 13.5 87t47.5 70v-313q-35 31 -48 68t-13 88zM957 338q31 -24 50 -65.5t19 -91.5q0 -51 -15 -87.5t-54 -68.5v313zM836 384q19 0 38.5 -15.5t19.5 -42.5v-266q0 -12 -5.5 -22.5t-14 -19.5t-19 -13.5t-19.5 -4.5h-72q-27 0 -45 16.5t-18 43.5v266
q0 27 20 42.5t43 15.5h72zM250 384q30 0 48 -14.5t18 -44.5v-258q0 -31 -15.5 -48.5t-41.5 -17.5h-75q-30 0 -45 18.5t-15 45.5v260q0 30 18.5 44.5t43.5 14.5h64zM510 834q81 0 152.5 -28t125.5 -78.5t84.5 -121t30.5 -155.5h-67q-26 0 -46.5 -0.5t-20.5 0.5
q0 63 -21.5 111.5t-57 81.5t-82 49.5t-98.5 16.5q-51 0 -97 -21.5t-81.5 -58t-57 -83t-21.5 -96.5h-135q0 85 30.5 155.5t84 121t125 78.5t152.5 28z" />
    <glyph glyph-name="uniE671" unicode="&#xe671;" 
d="M464 248q-2 -11 -5 -17t-15 -13q-26 -16 -56.5 -26.5t-58.5 -22.5t-48.5 -32t-25.5 -56q-2 -11 -2.5 -22t-1.5 -20q-1 -2 -2 -3.5t-2 -3.5q-40 3 -80.5 7t-74.5 9t-57.5 10.5t-29.5 10.5q-9 7 -13.5 42.5t3.5 92.5q5 31 26 47.5t49.5 26.5t58 18t53.5 22q18 12 27.5 22.5
t13.5 21t4 21.5t-1 24q-2 21 -13.5 32.5t-25.5 23.5q-8 5 -13.5 16t-9.5 23l-9 27q-6 2 -12 6q-5 4 -10.5 12t-10.5 22.5t-4 27t5 21.5q4 11 11 18q-1 33 3 66q4 28 13.5 59.5t27.5 56.5q16 24 36.5 39.5t41 24t42 11.5t41.5 3q51 0 91.5 -21.5t60.5 -45.5q13 -17 16.5 -32
t9.5 -34q-19 -11 -40.5 -33t-38.5 -44q-20 -28 -30 -62.5t-15 -64.5q-5 -35 -5 -71q-8 -9 -13 -20q-4 -10 -5 -23.5t4 -30.5q6 -17 12 -26t11 -14q6 -6 12 -8q4 -16 8 -31q4 -12 9.5 -24.5t13.5 -18.5q7 -6 11.5 -10t7 -8t3 -10t2.5 -16zM1004 62q4 -15 6.5 -35t2.5 -41
t-3 -39t-9 -27q-4 -6 -24 -12.5t-49 -11.5t-64.5 -9.5t-71.5 -7.5t-69.5 -5t-59 -2t-58.5 2t-68.5 5t-70 6.5t-63.5 8t-48.5 9t-24.5 9.5q-8 7 -13 42.5t3 90.5q5 33 25.5 49t49 26.5t58.5 18t53 22.5q18 12 28 22t14.5 20.5t4.5 21.5t-1 25q-2 20 -14 32t-27 23
q-7 6 -12.5 17t-9.5 22q-4 13 -8 28q-6 2 -12 6q-5 4 -10.5 12t-11 22.5t-4.5 27t5 20.5q5 10 12 18q-1 33 3 66q4 29 12.5 59.5t26.5 57.5q16 24 36.5 39.5t42 24t42.5 11.5t40 3q52 0 92.5 -21.5t59.5 -45.5q23 -27 33.5 -61t15.5 -64q5 -34 4 -69q5 -4 9 -11
q3 -6 5.5 -15.5t0.5 -23.5q-2 -19 -8 -30t-12 -17q-7 -7 -16 -9q-4 -15 -8 -28q-4 -11 -10 -22t-14 -16q-8 -7 -14.5 -12t-11.5 -10.5t-8.5 -13t-5.5 -17.5q-2 -13 -1.5 -26.5t6.5 -27t19.5 -25.5t38.5 -21q21 -9 47 -15.5t49.5 -16t42.5 -23.5t27 -36z" />
    <glyph glyph-name="uniE672" unicode="&#xe672;" horiz-adv-x="1033" 
d="M491 69q4 -19 13.5 -41.5t26.5 -45.5t45 -45.5t68 -41.5q-27 -7 -63 -11q-30 -4 -74.5 -7t-102.5 -3q-30 0 -68.5 2t-79.5 6t-81.5 9t-74 10t-56.5 10.5t-29 11.5q-10 8 -16 49.5t5 107.5q6 37 30.5 56.5t56.5 31.5t67 21.5t63 26.5q21 14 32.5 26t16 24.5t4.5 25.5
t-1 29q-2 24 -16 37.5t-31 27.5q-8 7 -14 19.5t-11 26.5q-6 15 -11 31q-7 2 -14 8q-6 5 -12.5 14t-12 26.5t-3.5 31t6 24.5q4 13 12 23q0 39 4 77q4 33 14 70.5t32 66.5q19 28 42.5 45.5t48 28t49.5 14.5t48 4q29 0 56 -7t50 -18.5t41.5 -25.5t29.5 -29q26 -32 38.5 -71.5
t17.5 -74.5q5 -40 4 -81q7 -5 12 -13q4 -8 6.5 -19t0.5 -27q-2 -23 -9 -35.5t-15 -19.5q-9 -9 -19 -12q-5 -16 -10 -31q-5 -14 -11.5 -26.5t-14.5 -19.5q-9 -8 -14 -16t-8 -16t-7 -17.5t-11 -21.5q-23 -36 -36.5 -69t-18.5 -63t-3 -58t8 -56zM1014 -67q14 -18 15.5 -30
t-9.5 -23q-6 -7 -16 -7.5t-20.5 3.5t-20 10t-17.5 12l-71 65q-29 -17 -61 -24.5t-64 -5.5t-62.5 15.5t-55.5 39.5q-28 28 -42.5 64.5t-14.5 74t14.5 74t42.5 64.5q28 29 63.5 43.5t72.5 14.5t72.5 -14.5t64.5 -43.5q24 -25 38 -56.5t16.5 -64.5t-5.5 -65.5t-25 -60.5l39 -38
q15 -16 28 -30zM769.5 -4q26.5 0 50 10t41 28t27.5 42t10 51.5t-10 51t-27.5 41.5t-41 28t-50 10t-50 -10t-40.5 -28t-27.5 -41.5t-10.5 -51t10.5 -51.5t27.5 -42t40.5 -28t50 -10z" />
    <glyph glyph-name="uniE673" unicode="&#xe673;" 
d="M763 -42q-43 0 -81.5 16.5t-67 45t-45 67t-16.5 81.5t16.5 81.5t45 66.5t67 44.5t81.5 16.5t81.5 -16.5t66.5 -44.5t44.5 -66.5t16.5 -81.5t-16.5 -81.5t-44.5 -67t-66.5 -45t-81.5 -16.5zM866 202h-75v70q0 15 -9.5 25t-24 10t-22.5 -10t-8 -25v-70h-67q-14 0 -24 -10.5
t-10 -24.5t10 -21.5t24 -7.5h67v-72q0 -15 8 -25t22.5 -10t24 10t9.5 25v72h75v-2q15 0 25 8.5t10 22.5t-10 24.5t-25 10.5zM613 457q-4 -17 -8 -30q-4 -11 -10 -23t-13 -18q-10 -7 -13.5 -15.5t-6 -17t-5.5 -17.5t-10 -19q-24 -30 -35.5 -59t-16.5 -55.5t-2.5 -52.5
t8.5 -51q4 -18 12 -38t24 -41t40.5 -41t61.5 -38q-25 -6 -57 -10q-28 -3 -68.5 -5.5t-92.5 -2.5q-27 0 -62 2t-72.5 5t-74 7.5t-66.5 9t-51 9.5t-26 9q-10 8 -15 45.5t3 98.5q5 33 27 51t52 28.5t62 19t57 23.5q19 13 29.5 23.5t14.5 22t4 23.5t-1 27q-2 21 -15 33.5
t-27 24.5q-8 6 -14 18.5t-10 23.5q-6 13 -9 30q-7 2 -13 6q-5 4 -11 12t-12 25q-5 15 -3.5 28.5t6.5 22.5q4 11 11 19q0 35 4 70q4 30 12.5 63.5t28.5 60.5q18 26 39 42t43.5 25.5t45 13t43.5 3.5q26 0 51 -6t46 -16.5t37 -23t27 -26.5q23 -30 34 -65.5t16 -67.5
q5 -37 4 -74q6 -5 10 -12q4 -6 6 -16.5t0 -25.5q-2 -19 -8 -30.5t-13 -17.5q-8 -7 -18 -10z" />
    <glyph glyph-name="uniE674" unicode="&#xe674;" 
d="M517 843q95 0 179 -36.5t146 -98.5t98.5 -146t36.5 -179t-36.5 -179t-98.5 -146t-146 -98.5t-179 -36.5t-179 36.5t-146 98.5t-98.5 146t-36.5 179t36.5 179t98.5 146t146 98.5t179 36.5zM663.5 635q-15.5 0 -28 -6.5t-23 -18.5t-16 -28t-5.5 -33q0 -36 21.5 -61.5
t51 -25.5t51 25.5t21.5 61.5q0 17 -5.5 33t-15.5 28t-23 18.5t-28.5 6.5zM373.5 635q-29.5 0 -50.5 -25t-21 -61t21 -61.5t50.5 -25.5t50 25.5t20.5 61.5t-20.5 61t-50 25zM520 294q-51 0 -97 -10t-83 -27.5t-62.5 -41.5t-35.5 -51q-1 -1 -1 -2q-1 -3 -1 -9t2.5 -12t7 -11
t12.5 -6q26 28 63 50q31 20 79 35.5t114 15.5q68 0 117 -15.5t82 -35.5q38 -22 63 -50q18 5 20.5 19t0.5 19t-3 7t-1 3q-27 55 -100.5 88.5t-176.5 33.5z" />
    <glyph glyph-name="uniE675" unicode="&#xe675;" horiz-adv-x="1028" 
d="M1018 784q4 -9 7 -21.5t3 -26t-5.5 -26.5t-16.5 -25q-12 -13 -22 -22t-17 -16l-15 -15l-192 192q13 11 29.5 27t28.5 25q14 11 29.5 15.5t30 4t28.5 -4.5t24 -9q22 -11 48 -39t40 -59zM221 284q6 7 28.5 30t56.5 56l75 75l83 83l220 220l191 -192l-220 -220l-82 -83
q-41 -40 -73.5 -73.5t-54 -55t-25.5 -24.5q-11 -9 -24 -19t-28 -17q-14 -7 -41.5 -17t-58 -20t-57.5 -17t-40 -9q-28 -3 -37 8t-5 38q2 14 9.5 41.5t16.5 56.5t17 53.5t13 33.5q6 15 14 26.5t22 25.5z" />
    <glyph glyph-name="uniE676" unicode="&#xe676;" 
d="M447 131h-197q-28 2 -42.5 23t-18.5 47q4 25 18.5 41.5t42.5 18.5h197v65l-197 1q-28 2 -42.5 19.5t-18.5 43.5q4 26 18.5 42.5t42.5 18.5h147l-137 241q-10 13 -19.5 31.5t-8.5 41.5q6 29 21 46.5t57 23.5q25 -2 44.5 -17t31.5 -33l156 -284l171 286q12 18 31.5 31
t43.5 17q16 -1 28.5 -4.5t22.5 -10.5t16.5 -20.5t9.5 -34.5q0 -30 -20 -56l-159 -258h151q26 -2 41.5 -18.5t17.5 -42.5q-2 -26 -18 -44.5t-42 -20.5l-196 -1v-63h197q26 -2 41.5 -20.5t17.5 -43.5q-2 -27 -17.5 -45t-41.5 -20l-197 1v-108q-4 -87 -95 -87q-45 0 -70 21.5
t-28 65.5v106z" />
    <glyph glyph-name="uniE677" unicode="&#xe677;" horiz-adv-x="1026" 
d="M898 638q24 1 47 -9.5t41 -27t28.5 -39t10.5 -46.5v-390q0 -25 -10.5 -47.5t-28.5 -40.5t-41 -28t-48 -10h-697q-25 0 -49 10t-42.5 27.5t-29.5 40.5t-11 49v382q0 22 10.5 45.5t28.5 41.5t40 30t44 12h64l13 84q3 20 18.5 32.5t35.5 12.5h456q20 0 34.5 -11t16.5 -34
l15 -84h54zM549 183q41 0 78 16t63.5 42.5t42.5 63t16 77.5t-16 77.5t-42.5 63t-63.5 42.5t-78 16t-77.5 -16t-63.5 -42.5t-43 -63t-16 -77.5t16 -77.5t43 -63t63.5 -42.5t77.5 -16z" />
    <glyph glyph-name="uniE678" unicode="&#xe678;" 
d="M952 386q48 -55 1 -107l-331 -334q-22 -18 -49.5 -16t-43.5 18q-123 124 -221 222l-82 82q-40 40 -71 71.5t-51 51.5t-21 22q-3 4 -10.5 15t-7.5 26v21v41q0 23 0.5 53t0.5 60q1 72 2 160q1 0 1 1q2 13 4.5 25.5t13.5 23.5q10 12 23.5 16t24.5 4h338q2 0 9 -0.5t11 -1.5
q12 -5 22 -14zM220.5 622q27.5 0 47 20t19.5 47.5t-19.5 47t-47 19.5t-47 -19.5t-19.5 -47t19.5 -47.5t47 -20z" />
    <glyph glyph-name="uniE679" unicode="&#xe679;" 
d="M508 844q95 0 179 -36.5t146 -98.5t98.5 -145.5t36.5 -178.5t-36.5 -179t-98.5 -146t-146 -98.5t-179 -36.5t-178.5 36.5t-145.5 98.5t-98.5 146t-36.5 179t36.5 178.5t98.5 145.5t145.5 98.5t178.5 36.5zM736 323q31 0 55.5 15.5t24.5 47.5q0 31 -24.5 45.5t-55.5 14.5
h-452q-31 0 -56.5 -14.5t-25.5 -45.5q0 -32 25.5 -47.5t56.5 -15.5h452z" />
    <glyph glyph-name="uniE67A" unicode="&#xe67a;" 
d="M514 834q93 0 175.5 -35.5t144 -97t97 -144t35.5 -175.5q0 -94 -35.5 -176t-97 -143.5t-144 -97t-175.5 -35.5q-94 0 -176.5 35.5t-144 97t-97 143.5t-35.5 176q0 93 35.5 175.5t97 144t144 97t176.5 35.5zM772 319q27 0 45.5 19t18.5 46t-18.5 45t-45.5 18h-192v193
q0 27 -19 46t-46 19t-45 -19t-18 -46v-193h-193q-27 0 -45 -18t-18 -45t18 -46t45 -19h193v-191q0 -27 18 -46t45 -19t46 19t19 46v191h192z" />
    <glyph glyph-name="uniE67B" unicode="&#xe67b;" 
d="M827.5 700.5q65.5 -65.5 97.5 -147.5t32 -168t-32 -168t-97.5 -147.5t-147.5 -98t-168 -32.5t-168.5 32.5t-148 98t-98 147.5t-32.5 168t32.5 168t98 147.5t148 97.5t168.5 32t168 -32t147.5 -97.5zM720.5 180.5q21.5 21.5 19 49t-23.5 49.5l-108 107l108 108
q21 21 23.5 48.5t-19 49t-51.5 21.5t-52 -21l-107 -107l-104 105q-22 20 -49.5 22.5t-49.5 -17.5q-21 -22 -21 -52.5t21 -52.5l105 -104l-105 -104q-21 -22 -21 -52t21.5 -51.5t49 -19t49.5 23.5l104 105l107 -108q22 -21 52 -21t51.5 21.5z" />
    <glyph glyph-name="uniE67C" unicode="&#xe67c;" 
d="M514 837q93 0 174.5 -35.5t142.5 -97t96.5 -143.5t35.5 -175t-35.5 -175.5t-96.5 -144t-142.5 -97t-174.5 -35.5t-175 35.5t-143 97t-96 144t-35 175.5t35 175t96 143.5t143 97t175 35.5zM796 472q18 18 19 45.5t-17.5 46t-45 18t-44.5 -19.5l-289 -289l-100 99
q-18 18 -44.5 18.5t-45 -18t-19 -43.5t17.5 -43l143 -144q18 -18 48 -17.5t48 18.5l-4 -4z" />
    <glyph glyph-name="uniE67D" unicode="&#xe67d;" 
d="M447 27v682h-242q-37 0 -57 26t-22 73q4 82 79 88h667q86 -6 91 -88q-2 -44 -25 -70.5t-66 -28.5h-231v-682q-3 -47 -26 -70.5t-73 -23.5q-48 0 -69.5 23.5t-25.5 70.5z" />
    <glyph glyph-name="uniE67E" unicode="&#xe67e;" 
d="M925 769q37 -37 54.5 -82.5t17.5 -93.5t-17.5 -93.5t-54.5 -82.5l-393 -389q-36 -37 -90 -61.5t-114 -29t-122.5 16t-115.5 74.5q-52 52 -72.5 113t-16.5 121.5t28 113.5t61 90l348 345q9 9 27 4.5t28 -13.5q8 -9 13 -27t-4 -27l-347 -345q-28 -27 -46.5 -64t-21.5 -79
t12.5 -85t55.5 -83q35 -36 79 -50.5t87 -12t81.5 19t66.5 43.5l391 388q28 28 39.5 57.5t11 59t-13.5 57t-37 51.5q-44 43 -98.5 40t-110.5 -58l-353 -351q-24 -24 -23.5 -52.5t19.5 -46.5q22 -23 51.5 -19t47.5 23l321 318q9 9 27 4.5t27 -13.5t14 -27t-4 -27l-321 -319
q-37 -37 -71 -51t-63.5 -12.5t-55 15.5t-47.5 35q-17 16 -31 41.5t-16 56.5t11 65.5t49 70.5q19 19 33 34l24 24l11 11l286 285q37 36 80.5 57t88.5 24.5t88.5 -12t80.5 -52.5z" />
    <glyph glyph-name="uniE67F" unicode="&#xe67f;" 
d="M684 493q-17 8 -15.5 21.5t11.5 22.5q3 2 20 15.5t41 33.5q-43 49 -102 77t-129 28q-65 0 -121 -24t-98 -66t-66 -98.5t-24 -120.5t24 -120t66 -98t98 -66t121 -24q53 0 100.5 17t87 47.5t68 72t41.5 90.5q7 24 26.5 39t46.5 15q31 0 53 -22.5t22 -52.5q0 -15 -5 -28
q-21 -72 -63 -132.5t-100 -104t-128.5 -68t-148.5 -24.5q-95 0 -179 36t-146 98.5t-98.5 146t-36.5 178.5t36.5 179t98.5 146t146 98.5t179 36.5q105 0 195.5 -43.5t153.5 -118.5q24 17 39.5 30t20.5 16q6 5 13 7.5t13 0t11 -10.5t7 -25q1 -9 2 -31t2 -51t1 -60.5t-1 -58.5
q-1 -35 -17 -51q-8 -8 -24.5 -9t-34.5 3q-28 6 -61 13.5t-63.5 15t-53.5 14t-29 10.5z" />
    <glyph glyph-name="uniE680" unicode="&#xe680;" 
d="M187 825q29 0 49 -19.5t20 -47.5v-52q0 -29 -20 -49t-49 -20h-54q-28 0 -47.5 20t-19.5 49v52q0 28 19.5 47.5t47.5 19.5h54zM890 825q28 0 47.5 -19.5t19.5 -47.5v-52q0 -29 -19.5 -49t-47.5 -20h-437q-29 0 -49 20t-20 49v52q0 28 20 47.5t49 19.5h437zM187 507
q29 0 49 -20t20 -49v-52q0 -28 -20 -48t-49 -20h-54q-28 0 -47.5 20t-19.5 48v52q0 29 19.5 49t47.5 20h54zM890 507q28 0 47.5 -20t19.5 -49v-52q0 -28 -19.5 -48t-47.5 -20h-437q-29 0 -49 20t-20 48v52q0 29 20 49t49 20h437zM187 187q29 0 49 -20t20 -47v-52
q0 -29 -20 -49t-49 -20h-54q-28 0 -47.5 20t-19.5 49v52q0 27 19.5 47t47.5 20h54zM890 187q28 0 47.5 -20t19.5 -47v-52q0 -29 -19.5 -49t-47.5 -20h-437q-29 0 -49 20t-20 49v52q0 27 20 47t49 20h437z" />
    <glyph glyph-name="uniE681" unicode="&#xe681;" 
d="M1016 435q0 -17 -6.5 -32t-17.5 -26.5t-26 -18.5t-32 -7h-349q34 0 58 -22t24 -55t-24 -57t-58 -24h-31q17 0 32 -6.5t26.5 -17t18 -25t6.5 -30.5q0 -17 -9.5 -31.5t-25 -25.5t-36 -18t-42.5 -7q35 0 56 -23.5t21 -57.5q0 -21 -12 -35.5t-30 -24.5t-38.5 -14.5
t-37.5 -4.5h-55h-249q-33 0 -61.5 11t-49 30.5t-32.5 47.5t-12 63v316q0 20 1.5 41t7.5 39t18.5 33t34.5 24q31 13 74 43.5t82.5 71.5t67.5 91.5t28 102.5q1 30 9 51t19.5 34t25.5 19t28 6q37 0 62 -23t36 -74q2 -46 -5 -95q-6 -42 -22 -92.5t-48 -99.5h491q34 0 58 -21.5
t24 -55.5z" />
    <glyph glyph-name="uniE682" unicode="&#xe682;" 
d="M774 95q9 25 31 33.5t42.5 3.5t32.5 -23t2 -45q-12 -33 -37.5 -71.5t-71.5 -69t-115.5 -45t-168.5 1.5q-68 12 -129 29t-108.5 34.5t-79.5 31.5t-42 19l-4 -4l-15 384q7 71 16 139q4 28 8.5 58.5t9.5 60.5t10 57t11 49q13 54 39 75t50.5 18.5t42.5 -23t16 -49.5
q-2 -20 -7 -58.5t-11.5 -84.5t-13.5 -93t-13 -83q11 30 26 68.5t33.5 81.5t39.5 86t42 81.5t43.5 68t43.5 44.5q42 27 71.5 25.5t46 -17.5t18 -40.5t-13.5 -42.5q-17 -18 -37 -58.5t-40 -82.5q-23 -49 -46 -106q36 37 74 70q31 29 70 58t75 45q35 17 65 16t47 -14t15.5 -35
t-30.5 -46q-14 -12 -33 -29t-41 -36.5t-45.5 -40.5t-45.5 -41q-51 -48 -108 -99q88 23 163 22q32 0 63.5 -5.5t58.5 -19t47 -35.5t28 -57q10 -45 1.5 -74.5t-26 -41.5t-38.5 -3t-36 42q-14 34 -27 47t-28 14t-31.5 -5.5t-37.5 -11.5q-14 -3 -31.5 -13t-33 -24.5t-28 -31
t-16 -34t3 -33t28.5 -26.5q34 -17 62.5 -28.5t51 -14.5t38.5 4t23 28z" />
    <glyph glyph-name="uniE683" unicode="&#xe683;" 
d="M286 663q-15 15 -22 33t-7 37t7 37t22 32q28 30 68 30t68 -30l379 -381q14 -13 20 -31t5 -38.5t-9 -40.5t-22 -34l-373 -375q-28 -30 -68 -30t-68 30q-15 14 -22 32t-7 36.5t7 37t22 32.5l308 311z" />
    <glyph glyph-name="uniE684" unicode="&#xe684;" 
d="M800 664l-308 -312l308 -312q14 -14 21 -32.5t7 -37t-7 -36.5t-21 -32q-29 -30 -68.5 -30t-68.5 30l-372 375q-15 14 -23 34t-9 40.5t5 39t21 31.5l378 381q29 29 68.5 29t68.5 -29q14 -14 21 -32.5t7 -37.5t-7 -36.5t-21 -32.5z" />
    <glyph glyph-name="uniE685" unicode="&#xe685;" 
d="M854 157l-313 309l-314 -309q-14 -15 -32.5 -22t-37.5 -7t-37 7t-32 22q-30 28 -30 68t30 69l377 374q14 14 34 22t40.5 9t39.5 -5t31 -20l383 -380q29 -29 29 -69t-29 -68q-14 -15 -32.5 -22t-37.5 -7t-37 7t-32 22z" />
    <glyph glyph-name="uniE686" unicode="&#xe686;" horiz-adv-x="1026" 
d="M857 672q29 28 69.5 28t68.5 -28q30 -29 30 -69t-30 -68l-383 -381q-12 -15 -30.5 -20.5t-39 -4.5t-40.5 8.5t-34 22.5l-377 375q-30 28 -30 68t30 69q14 14 32 21t37 7t37.5 -7t32.5 -21l314 -310z" />
    <glyph glyph-name="uniE687" unicode="&#xe687;" 
d="M512 406h-71q7 5 16 13.5t20 18.5h35v-32zM436 401q-1 -1 -2 -1l-9 6h16zM832 730q66 -66 99 -149.5t33 -170t-33 -170t-99 -149.5q-41 -42 -88.5 -70t-99.5 -44l20 88l-150 -193l-150 193l20 -88q-52 16 -99.5 44t-88.5 70q-66 66 -99 149.5t-33 170t33 170t99 149.5
t148.5 99.5t169 33.5t169.5 -33.5t149 -99.5zM313 587q-21 0 -36.5 -12t-15.5 -29t15.5 -29t36.5 -12q22 0 37 12t15 29t-15 29t-37 12zM357 342q11 29 11 50t-18 37q-12 10 -19.5 16.5t-15 12.5t-18 12.5t-27.5 17.5l-33 -44l61 -33q11 -5 18 -13q6 -7 8 -16t-5 -22
q-7 -12 -24.5 -29.5t-35.5 -33.5q-21 -19 -46 -39l79 -43l32 58q10 20 16 30.5t9 17.5t8 21zM787 294q5 48 5.5 85.5t-1.5 64.5q-3 32 -8 56q-9 31 -45 49q-15 7 -38 12.5t-55 6t-74.5 -5t-97.5 -18.5q10 15 14 23q3 5 5 9l-73 18q-9 -24 -21 -47q-11 -20 -26 -41t-35 -36
q14 -8 25 -13q5 -2 9 -4l8 -4l8 -4q22 19 39 39q9 3 17.5 6t16.5 6q-10 -16 -25 -37t-32 -36l22 -17h-23v-28h110v-84h-12q-8 0 -22 2t-19 9q-6 9 -4 22.5t2 23.5h-65l-2 -1q-6 -28 -1 -50q5 -19 21 -34.5t54 -14.5q35 -1 62.5 3t49 10t36.5 13.5t25 13.5l10 -33l58 21
l-39 84l-47 -13l9 -29q-9 -6 -25 -10.5t-27 -7.5v76h110v29h-110v30h111v32h-178q21 21 26 34l-31 7q49 16 90 22t69.5 2t44 -18.5t15.5 -39.5v-178q-3 -17 -13 -30q-9 -11 -26 -20t-47 -7l-44 8l-10 -36q53 -12 96 -8q18 1 36 6t33 15.5t25.5 26.5t13.5 40z" />
    <glyph glyph-name="uniE688" unicode="&#xe688;" 
d="M98 55q79 15 137.5 39t97.5 47q46 28 79 60l61 -71q-18 -17 -47.5 -34t-64.5 -31.5t-72 -26.5t-71 -21t-60.5 -13.5t-40.5 -4.5q-3 8 -6 18t-7 18q-4 10 -6 20zM978 280q-28 -25 -59 -47q-27 -18 -62 -35.5t-72 -24.5q41 -21 88.5 -39t100.5 -30q-20 -25 -36 -48l-28 -38
q-14 -19 -22 -27q-53 22 -96 47t-77 50.5t-59 49.5t-44 44v-192h-124v304q-14 -1 -28 -1.5t-28 -1.5l34 -37q-45 -28 -99 -52q-46 -21 -109 -42t-137 -32q-3 14 -6 27l-6 22q-4 11 -6 18q32 4 64.5 14t62 23t55 27t46.5 27q-30 -2 -54.5 -2t-42.5 -1q-20 -1 -37 -1l-16 70
q46 0 110.5 3.5t135.5 11.5v50q-76 -8 -136.5 -17.5t-103.5 -17.5q-50 -10 -89 -20l-40 102q24 3 51 6t57 6v205h-68v76h515v-26q36 5 93 10t116 4q51 0 88.5 -11t54.5 -31q28 -34 -6 -88q-9 -15 -27.5 -34t-42.5 -39q46 -31 89 -71q-12 -12 -29 -28.5t-33 -30.5l-36 -35
q-22 26 -44 50.5t-43 44.5q-26 -17 -53.5 -33.5t-56.5 -34.5q24 7 45 13t38 13q8 -20 18 -39q9 -16 18.5 -33t19.5 -29q-39 -8 -89.5 -14.5t-107.5 -11.5q31 -41 82 -80q38 13 67.5 34t49.5 41q24 24 41 50zM427 516h-144v-32q38 2 74 3t70 3v26zM427 600h-144v-35h144v35z
M427 681h-144v-32h144v32zM537 379q32 5 62.5 9.5t57.5 10.5l-44 87q30 12 57.5 23.5t51.5 24.5q-21 16 -37.5 28.5t-29.5 21.5q-14 10 -26 16l48 54q18 -7 40 -17q18 -8 42.5 -20.5t53.5 -27.5q30 20 42 39q16 20 5 35q-13 16 -51 16h-4q-43 0 -80.5 -6.5t-64.5 -14.5
t-43 -15t-17 -7l-12 45h-51v-187q17 0 31 0.5t24 0.5h20v-67q-39 0 -75 -3v-46z" />
    <glyph glyph-name="uniE689" unicode="&#xe689;" 
d="M923 52q0 -45 24.5 -79.5t63.5 -51.5q-6 -1 -12.5 -1.5t-12.5 -0.5h-798q-32 0 -60.5 12.5t-50 34t-33.5 50t-12 61.5l1 762h890v-787zM791 656h-449h-36h-37q-31 2 -48 26q-11 -12 -19.5 -28t-12.5 -33q-6 -36 10.5 -60.5t46.5 -26.5h176l-83 -461h126l83 461h216z" />
    <glyph glyph-name="uniE68A" unicode="&#xe68a;" horiz-adv-x="1026" 
d="M372 802q26 0 44 -18t18 -44v-247q0 -26 -18 -44.5t-44 -18.5h-248q-26 0 -44 18.5t-18 44.5v247q0 26 18 44t44 18h248zM372 306q26 0 44 -18t18 -43v-249q0 -26 -18 -44t-44 -18h-248q-26 0 -44 18t-18 44v249q0 25 18 43t44 18h248zM868 306q26 0 44 -18t18 -43v-249
q0 -26 -18 -44t-44 -18h-247q-26 0 -44.5 18t-18.5 44v249q0 25 18.5 43t44.5 18h247zM1006 693q20 -20 20 -47t-20 -45l-184 -185q-20 -20 -46.5 -20t-45.5 20l-185 185q-19 18 -19 45t19 47l185 184q19 19 45.5 19t46.5 -19z" />
    <glyph glyph-name="uniE68B" unicode="&#xe68b;" 
d="M926 512q19 0 37 -7.5t31 -20.5t20.5 -31t7.5 -37q0 -21 -7.5 -38.5t-20.5 -30t-31 -20.5t-37 -8h-288v-287q0 -21 -7.5 -38.5t-20.5 -30t-31 -20.5t-37 -8q-21 0 -38.5 8t-30 20.5t-20.5 30t-8 38.5v287h-287q-21 0 -38.5 8t-30 20.5t-20.5 30t-8 38.5q0 19 8 37
t20.5 31t30 20.5t38.5 7.5h287v288q0 19 8 37t20.5 31t30 20.5t38.5 7.5q40 0 68 -28t28 -68v-288h288z" />
    <glyph glyph-name="uniE68C" unicode="&#xe68c;" horiz-adv-x="1026" 
d="M901 253l-781 3q-25 0 -47.5 8.5t-39 25t-26 39.5t-9.5 53q0 29 9.5 53t26 40.5t39 25.5t47.5 9h781q25 0 47 -9t38 -25.5t26 -40.5t10 -53q0 -30 -10 -53.5t-26 -40.5t-38 -26t-47 -9z" />
    <glyph glyph-name="uniE68D" unicode="&#xe68d;" 
d="M346 89q20 0 37 -7t30 -20t20.5 -30.5t7.5 -37t-7.5 -36.5t-20.5 -30t-30 -20.5t-37 -7.5t-37.5 7.5t-30.5 20.5t-20.5 30t-7.5 36.5t7.5 37t20.5 30.5t30.5 20t37.5 7zM772.5 87q19.5 0 37 -7t30.5 -20t20.5 -30.5t7.5 -37t-7.5 -36.5t-20.5 -30t-30.5 -20.5t-37 -7.5
t-37 7.5t-30.5 20.5t-20.5 30t-7.5 36.5t7.5 37t20.5 30.5t30.5 20t37 7zM944 669q29 0 45 -8t22.5 -19t6 -24t-3.5 -22t-13.5 -38t-22 -63t-23.5 -68t-19 -53q-13 -41 -33 -57t-50 -16h-36h-65h-86h-97h-254l15 -92h517q49 0 49 -42q0 -21 -9.5 -35.5t-38.5 -14.5h-49h-94
h-119h-120h-99h-56q-20 0 -34 9t-23 24t-15 32.5t-9 32.5q-1 6 -5.5 29.5t-11 59t-15 79t-16.5 87.5q-19 103 -44 230h-77q-15 0 -25 8t-17 18.5t-9.5 23t-2.5 22.5q0 21 14 34t37 13h22h21h26h35q20 0 32.5 -6t19.5 -15.5t10 -19.5t5 -17q2 -8 4.5 -23t4.5 -30q3 -19 6 -39
h700zM867 701h-374l135 136q23 23 51.5 23.5t51.5 -22.5z" />
    <glyph glyph-name="uniE68E" unicode="&#xe68e;" horiz-adv-x="1028" 
d="M333 105q19 0 36.5 -7t30.5 -19.5t20.5 -30t7.5 -37t-7.5 -37t-20.5 -30.5t-30.5 -20.5t-36.5 -7.5q-21 0 -38 7.5t-30 20.5t-20.5 30.5t-7.5 37t7.5 37t20.5 30t30 19.5t38 7zM758.5 103q19.5 0 37.5 -7t31 -20t20.5 -30t7.5 -36.5t-7.5 -37t-20.5 -30.5t-31 -20.5
t-37.5 -7.5t-36.5 7.5t-30 20.5t-20.5 30.5t-7.5 37t7.5 36.5t20.5 30t30 20t36.5 7zM931 685q28 0 44 -7.5t23 -19t6.5 -24t-4 -22t-13.5 -38t-22 -63t-23.5 -68t-18.5 -53.5q-14 -41 -34 -57t-49 -16h-36h-66h-86h-96h-254l14 -92h518q49 0 49 -42q0 -20 -10 -35.5
t-38 -14.5h-50h-94h-119h-119h-100h-55q-20 0 -34 9.5t-23.5 24t-15 32t-8.5 32.5q-1 7 -5.5 30.5t-11 58.5t-15 78.5t-16.5 87.5q-19 104 -44 231h-77q-15 0 -25.5 7.5t-17 18.5t-9 23t-2.5 22q0 21 14 34.5t37 12.5h103q21 0 33.5 -6.5t19.5 -15.5t10 -19t5 -17
q2 -8 4 -23l4 -30q3 -18 6 -39h701zM893 594l-641 2l36 -185l535 -1z" />
    <glyph glyph-name="uniE68F" unicode="&#xe68f;" horiz-adv-x="1026" 
d="M449 896q26 0 45 -19t19 -46v-319q0 -27 -19 -46t-45 -19h-320q-27 0 -45.5 19t-18.5 46v319q0 27 18.5 46t45.5 19h320zM962 896q26 0 44.5 -19t18.5 -46v-319q0 -27 -18.5 -46t-44.5 -19h-321q-27 0 -45.5 19t-18.5 46v319q0 27 18.5 46t45.5 19h321zM449 384
q26 0 45 -19t19 -46v-320q0 -27 -19 -45.5t-45 -18.5h-320q-27 0 -45.5 18.5t-18.5 45.5v320q0 27 18.5 46t45.5 19h320zM962 384q26 0 44.5 -19t18.5 -46v-320q0 -27 -18.5 -45.5t-44.5 -18.5h-321q-27 0 -45.5 18.5t-18.5 45.5v320q0 27 18.5 46t45.5 19h321z" />
    <glyph glyph-name="uniE690" unicode="&#xe690;" horiz-adv-x="1042" 
d="M582 199h127v-195q0 -34 -10.5 -59t-27.5 -41t-39.5 -23.5t-47.5 -7.5h-453q-25 0 -48.5 9.5t-41 27t-29 41t-11.5 52.5v707q0 24 12 46.5t30 40t40.5 28.5t45.5 11h450q26 0 49.5 -12t41.5 -30t28.5 -40.5t10.5 -43.5v-189h-127l1 196h-453l-1 -714h453v196zM1022 390
q38 -31 2 -60q-20 -16 -44.5 -38.5t-50.5 -46.5t-51.5 -47.5t-47.5 -40.5q-23 -19 -40 -19t-17 25q2 14 0.5 35.5t-1.5 37.5q0 17 -12 21t-30 4h-41h-62q-35 0 -73.5 0.5t-73.5 0.5h-62h-42q-8 0 -18 1.5t-17.5 6.5t-12 14.5t-4.5 23.5q0 20 -0.5 46.5t0.5 46.5
q0 28 13 38.5t43 9.5h34h59q33 0 70.5 -1t70.5 -1h62h39q25 -1 43 4.5t18 22.5q0 14 1 32t1 33q0 23 13 29t32 -9q20 -16 46 -38t52.5 -45t52.5 -45.5t48 -40.5z" />
    <glyph glyph-name="uniE691" unicode="&#xe691;" horiz-adv-x="1090" 
d="M547 822q25 0 49 -10t40.5 -28t27 -41.5t10.5 -50.5q0 -39 -20 -69.5t-52 -47.5q-11 -31 -11 -65q0 -38 13.5 -75.5t38 -67.5t56.5 -49t69 -19q32 0 60 15.5t51 39.5t39 54t23 60q-28 13 -45 40t-17 59q0 23 8 42.5t22.5 33.5t34 23t41 9t40.5 -9t33.5 -23t23 -33.5
t8.5 -42.5q0 -32 -17 -58.5t-44 -39.5q-5 -51 -15 -104.5t-25.5 -106t-36 -101.5t-45.5 -90q-85 -32 -176 -49t-187.5 -17t-187 17t-176.5 49q-24 41 -44.5 90t-36 101.5t-26.5 106t-15 104.5q-26 13 -42 39.5t-16 58.5q0 23 8 42.5t22 33.5t33 23t40.5 9t41 -9t34 -23
t22.5 -33.5t8 -42.5q0 -33 -17.5 -60t-45.5 -39q8 -31 23.5 -61t38.5 -54.5t51.5 -40t59.5 -15.5q37 0 69.5 19t57 49t38.5 68t14 76q0 36 -15 70q-28 17 -46 47t-18 66q0 27 10 50.5t27.5 41.5t40.5 28t50 10z" />
    <glyph glyph-name="uniE692" unicode="&#xe692;" 
d="M377 833q35 0 52.5 -18.5t17.5 -51.5v-685q0 -33 -21.5 -55.5t-52.5 -22.5h-237q-35 0 -54 19.5t-19 52.5v690q0 33 18 52t51 19h245zM889 833q35 0 53.5 -18.5t18.5 -51.5v-685q0 -33 -21.5 -55.5t-54.5 -22.5h-237q-35 0 -54 19.5t-19 52.5v690q0 33 18.5 52t50.5 19
h245z" />
    <glyph glyph-name="uniE693" unicode="&#xe693;" 
d="M896 833q27 0 45 -18.5t18 -45.5t-18 -45t-45 -18h-705q-26 0 -44.5 18t-18.5 45t18.5 45.5t44.5 18.5h705zM191 449q-26 0 -44.5 18t-18.5 45t18.5 46.5t44.5 19.5h448q27 0 45 -19.5t18 -46.5t-18 -45t-45 -18h-448zM831 321q28 0 46.5 -18.5t18.5 -45.5t-18.5 -45
t-46.5 -18h-640q-26 0 -44.5 18t-18.5 45t18.5 45.5t44.5 18.5h640zM575 65q27 0 45.5 -19t18.5 -46t-18.5 -45t-45.5 -18h-384q-26 0 -44.5 18t-18.5 45t18.5 46t44.5 19h384z" />
    <glyph glyph-name="uniE694" unicode="&#xe694;" 
d="M128 705q-27 0 -45 18.5t-18 45.5t18 45.5t45 18.5h768q27 0 45 -18.5t18 -45.5t-18 -45.5t-45 -18.5h-768zM768 577q27 0 45 -18.5t18 -45.5t-18 -45.5t-45 -18.5h-512q-27 0 -45 18.5t-18 45.5t18 45.5t45 18.5h512zM896 322q27 0 45 -19t18 -46t-18 -45t-45 -18h-768
q-27 0 -45 18t-18 45t18 46t45 19h768zM768 66q27 0 45 -19t18 -46t-18 -45t-45 -18h-512q-27 0 -45 18t-18 45t18 46t45 19h512z" />
    <glyph glyph-name="uniE695" unicode="&#xe695;" 
d="M73 691q-26 0 -44 18t-18 43.5t18 43.5t44 18h676q25 0 43 -18t18 -43.5t-18 -43.5t-43 -18h-676zM749 568q25 0 43 -18t18 -43.5t-18 -43.5t-43 -18h-431q-25 0 -43 18t-18 43.5t18 43.5t43 18h431zM749 323q25 0 43 -18t18 -43.5t-18 -43.5t-43 -18h-615q-25 0 -43 18
t-18 43.5t18 43.5t43 18h615zM749 77q25 0 43 -18t18 -43.5t-18 -43.5t-43 -18h-369q-26 0 -44 18t-18 43.5t18 43.5t44 18h369z" />
    <glyph glyph-name="uniE696" unicode="&#xe696;" 
d="M191 706q-26 0 -44.5 18t-18.5 45t18.5 45.5t44.5 18.5h696q26 0 44.5 -18.5t18.5 -45.5t-18.5 -45t-44.5 -18h-696zM191 453q-26 0 -44.5 18t-18.5 45t18.5 45.5t44.5 18.5h632q27 0 45.5 -18.5t18.5 -45.5t-18.5 -45t-45.5 -18h-632zM887 327q26 0 44.5 -18.5t18.5 -45
t-18.5 -45t-44.5 -18.5h-696q-26 0 -44.5 18.5t-18.5 45t18.5 45t44.5 18.5h696zM823 74q27 0 45.5 -18.5t18.5 -45t-18.5 -45t-45.5 -18.5h-632q-26 0 -44.5 18.5t-18.5 45t18.5 45t44.5 18.5h632z" />
    <glyph glyph-name="uniE697" unicode="&#xe697;" 
d="M127 831q27 0 45.5 -18t18.5 -45v-705q0 -26 -18.5 -44.5t-45.5 -18.5t-45.5 18.5t-18.5 44.5v705q0 27 18.5 45t45.5 18zM383 831q27 0 45.5 -18t18.5 -45v-640q0 -28 -18.5 -46.5t-45.5 -18.5t-45.5 18.5t-18.5 46.5v640q0 27 18.5 45t45.5 18zM639 831q27 0 45.5 -18
t18.5 -45v-705q0 -26 -18.5 -44.5t-45.5 -18.5t-45.5 18.5t-18.5 44.5v705q0 27 18.5 45t45.5 18zM895 831q27 0 45.5 -18t18.5 -45v-640q0 -28 -18.5 -46.5t-45.5 -18.5t-45.5 18.5t-18.5 46.5v640q0 27 18.5 45t45.5 18z" />
    <glyph glyph-name="uniE698" unicode="&#xe698;" horiz-adv-x="1027" 
d="M1026 512q0 -27 -18.5 -45t-44.5 -18h-385v126h385q26 0 44.5 -18t18.5 -45zM898 256q0 -27 -18.5 -45t-45.5 -18h-256v128h256q27 0 45.5 -19t18.5 -46zM898 768q0 -27 -18.5 -45t-45.5 -18h-256v128h256q27 0 45.5 -19t18.5 -46zM386 833h127v-898h-127v411
q-17 -14 -37.5 -30t-40.5 -32t-38.5 -30.5t-33.5 -27.5q-18 -13 -28.5 -7.5t-10.5 25.5q0 11 -0.5 27t-0.5 27q1 15 -12 19.5t-34 4.5q-31 0 -55 0.5t-47 0.5q-24 0 -36 8t-12 33q0 17 0.5 23t0.5 21q0 13 4 20.5t11 11.5t15 5.5t15 1.5q34 0 59.5 -0.5t58.5 -0.5
q15 0 23.5 3.5t8.5 17.5q0 13 1 31t1 29q-1 21 11.5 25t32.5 -12q31 -26 71 -57t73 -58v408zM963 63q26 0 44.5 -18t18.5 -45t-18.5 -46t-44.5 -19h-385v128h385z" />
    </font>
</defs>
</svg>
